<mxfile host="Electron" modified="2023-04-11T02:13:26.987Z" agent="Mozilla/5.0 (Windows NT 10.0; Win64; x64) AppleWebKit/537.36 (KHTML, like Gecko) draw.io/21.1.2 Chrome/106.0.5249.199 Electron/21.4.3 Safari/537.36" etag="8EIr3DhOLpgmTO0H_8EP" version="21.1.2" type="device">
  <diagram id="R2lEEEUBdFMjLlhIrx00" name="Page-1">
    <mxGraphModel dx="2446" dy="959" grid="1" gridSize="10" guides="1" tooltips="1" connect="1" arrows="1" fold="1" page="0" pageScale="1" pageWidth="850" pageHeight="1100" math="0" shadow="0" extFonts="Permanent Marker^https://fonts.googleapis.com/css?family=Permanent+Marker">
      <root>
        <mxCell id="0" />
        <mxCell id="1" parent="0" />
        <mxCell id="riU8iPJv9kqAU0dxlGaP-57" value="Catalog" style="shape=table;startSize=20;container=1;collapsible=0;childLayout=tableLayout;strokeColor=default;fontSize=16;fontStyle=1" parent="1" vertex="1">
          <mxGeometry x="-1080" y="40" width="400" height="100" as="geometry" />
        </mxCell>
        <mxCell id="riU8iPJv9kqAU0dxlGaP-58" value="" style="shape=tableRow;horizontal=0;startSize=0;swimlaneHead=0;swimlaneBody=0;strokeColor=inherit;top=0;left=0;bottom=0;right=0;collapsible=0;dropTarget=0;fillColor=none;points=[[0,0.5],[1,0.5]];portConstraint=eastwest;fontSize=16;" parent="riU8iPJv9kqAU0dxlGaP-57" vertex="1">
          <mxGeometry y="20" width="400" height="20" as="geometry" />
        </mxCell>
        <mxCell id="riU8iPJv9kqAU0dxlGaP-59" value="" style="shape=partialRectangle;html=1;whiteSpace=wrap;connectable=0;strokeColor=inherit;overflow=hidden;fillColor=none;top=0;left=0;bottom=0;right=0;pointerEvents=1;fontSize=16;" parent="riU8iPJv9kqAU0dxlGaP-58" vertex="1">
          <mxGeometry width="37" height="20" as="geometry">
            <mxRectangle width="37" height="20" as="alternateBounds" />
          </mxGeometry>
        </mxCell>
        <mxCell id="riU8iPJv9kqAU0dxlGaP-60" value="" style="shape=partialRectangle;html=1;whiteSpace=wrap;connectable=0;strokeColor=inherit;overflow=hidden;fillColor=none;top=0;left=0;bottom=0;right=0;pointerEvents=1;fontSize=16;" parent="riU8iPJv9kqAU0dxlGaP-58" vertex="1">
          <mxGeometry x="37" width="230" height="20" as="geometry">
            <mxRectangle width="230" height="20" as="alternateBounds" />
          </mxGeometry>
        </mxCell>
        <mxCell id="riU8iPJv9kqAU0dxlGaP-61" value="" style="shape=partialRectangle;html=1;whiteSpace=wrap;connectable=0;strokeColor=inherit;overflow=hidden;fillColor=none;top=0;left=0;bottom=0;right=0;pointerEvents=1;fontSize=16;" parent="riU8iPJv9kqAU0dxlGaP-58" vertex="1">
          <mxGeometry x="267" width="133" height="20" as="geometry">
            <mxRectangle width="133" height="20" as="alternateBounds" />
          </mxGeometry>
        </mxCell>
        <mxCell id="riU8iPJv9kqAU0dxlGaP-62" value="" style="shape=tableRow;horizontal=0;startSize=0;swimlaneHead=0;swimlaneBody=0;strokeColor=inherit;top=0;left=0;bottom=0;right=0;collapsible=0;dropTarget=0;fillColor=none;points=[[0,0.5],[1,0.5]];portConstraint=eastwest;fontSize=16;" parent="riU8iPJv9kqAU0dxlGaP-57" vertex="1">
          <mxGeometry y="40" width="400" height="20" as="geometry" />
        </mxCell>
        <mxCell id="riU8iPJv9kqAU0dxlGaP-63" value="" style="shape=partialRectangle;html=1;whiteSpace=wrap;connectable=0;strokeColor=inherit;overflow=hidden;fillColor=none;top=0;left=0;bottom=0;right=0;pointerEvents=1;fontSize=16;" parent="riU8iPJv9kqAU0dxlGaP-62" vertex="1">
          <mxGeometry width="37" height="20" as="geometry">
            <mxRectangle width="37" height="20" as="alternateBounds" />
          </mxGeometry>
        </mxCell>
        <mxCell id="riU8iPJv9kqAU0dxlGaP-64" value="" style="shape=partialRectangle;html=1;whiteSpace=wrap;connectable=0;strokeColor=inherit;overflow=hidden;fillColor=none;top=0;left=0;bottom=0;right=0;pointerEvents=1;fontSize=16;" parent="riU8iPJv9kqAU0dxlGaP-62" vertex="1">
          <mxGeometry x="37" width="230" height="20" as="geometry">
            <mxRectangle width="230" height="20" as="alternateBounds" />
          </mxGeometry>
        </mxCell>
        <mxCell id="riU8iPJv9kqAU0dxlGaP-65" value="" style="shape=partialRectangle;html=1;whiteSpace=wrap;connectable=0;strokeColor=inherit;overflow=hidden;fillColor=none;top=0;left=0;bottom=0;right=0;pointerEvents=1;fontSize=16;" parent="riU8iPJv9kqAU0dxlGaP-62" vertex="1">
          <mxGeometry x="267" width="133" height="20" as="geometry">
            <mxRectangle width="133" height="20" as="alternateBounds" />
          </mxGeometry>
        </mxCell>
        <mxCell id="riU8iPJv9kqAU0dxlGaP-66" value="" style="shape=tableRow;horizontal=0;startSize=0;swimlaneHead=0;swimlaneBody=0;strokeColor=inherit;top=0;left=0;bottom=0;right=0;collapsible=0;dropTarget=0;fillColor=none;points=[[0,0.5],[1,0.5]];portConstraint=eastwest;fontSize=16;" parent="riU8iPJv9kqAU0dxlGaP-57" vertex="1">
          <mxGeometry y="60" width="400" height="20" as="geometry" />
        </mxCell>
        <mxCell id="riU8iPJv9kqAU0dxlGaP-67" value="" style="shape=partialRectangle;html=1;whiteSpace=wrap;connectable=0;strokeColor=inherit;overflow=hidden;fillColor=none;top=0;left=0;bottom=0;right=0;pointerEvents=1;fontSize=16;" parent="riU8iPJv9kqAU0dxlGaP-66" vertex="1">
          <mxGeometry width="37" height="20" as="geometry">
            <mxRectangle width="37" height="20" as="alternateBounds" />
          </mxGeometry>
        </mxCell>
        <mxCell id="riU8iPJv9kqAU0dxlGaP-68" value="" style="shape=partialRectangle;html=1;whiteSpace=wrap;connectable=0;strokeColor=inherit;overflow=hidden;fillColor=none;top=0;left=0;bottom=0;right=0;pointerEvents=1;fontSize=16;" parent="riU8iPJv9kqAU0dxlGaP-66" vertex="1">
          <mxGeometry x="37" width="230" height="20" as="geometry">
            <mxRectangle width="230" height="20" as="alternateBounds" />
          </mxGeometry>
        </mxCell>
        <mxCell id="riU8iPJv9kqAU0dxlGaP-69" value="" style="shape=partialRectangle;html=1;whiteSpace=wrap;connectable=0;strokeColor=inherit;overflow=hidden;fillColor=none;top=0;left=0;bottom=0;right=0;pointerEvents=1;fontSize=16;" parent="riU8iPJv9kqAU0dxlGaP-66" vertex="1">
          <mxGeometry x="267" width="133" height="20" as="geometry">
            <mxRectangle width="133" height="20" as="alternateBounds" />
          </mxGeometry>
        </mxCell>
        <mxCell id="riU8iPJv9kqAU0dxlGaP-82" style="shape=tableRow;horizontal=0;startSize=0;swimlaneHead=0;swimlaneBody=0;strokeColor=inherit;top=0;left=0;bottom=0;right=0;collapsible=0;dropTarget=0;fillColor=none;points=[[0,0.5],[1,0.5]];portConstraint=eastwest;fontSize=16;" parent="riU8iPJv9kqAU0dxlGaP-57" vertex="1">
          <mxGeometry y="80" width="400" height="20" as="geometry" />
        </mxCell>
        <mxCell id="riU8iPJv9kqAU0dxlGaP-83" value="" style="shape=partialRectangle;html=1;whiteSpace=wrap;connectable=0;strokeColor=inherit;overflow=hidden;fillColor=none;top=0;left=0;bottom=0;right=0;pointerEvents=1;fontSize=16;" parent="riU8iPJv9kqAU0dxlGaP-82" vertex="1">
          <mxGeometry width="37" height="20" as="geometry">
            <mxRectangle width="37" height="20" as="alternateBounds" />
          </mxGeometry>
        </mxCell>
        <mxCell id="riU8iPJv9kqAU0dxlGaP-84" value="" style="shape=partialRectangle;html=1;whiteSpace=wrap;connectable=0;strokeColor=inherit;overflow=hidden;fillColor=none;top=0;left=0;bottom=0;right=0;pointerEvents=1;fontSize=16;align=center;" parent="riU8iPJv9kqAU0dxlGaP-82" vertex="1">
          <mxGeometry x="37" width="230" height="20" as="geometry">
            <mxRectangle width="230" height="20" as="alternateBounds" />
          </mxGeometry>
        </mxCell>
        <mxCell id="riU8iPJv9kqAU0dxlGaP-85" value="" style="shape=partialRectangle;html=1;whiteSpace=wrap;connectable=0;strokeColor=inherit;overflow=hidden;fillColor=none;top=0;left=0;bottom=0;right=0;pointerEvents=1;fontSize=16;" parent="riU8iPJv9kqAU0dxlGaP-82" vertex="1">
          <mxGeometry x="267" width="133" height="20" as="geometry">
            <mxRectangle width="133" height="20" as="alternateBounds" />
          </mxGeometry>
        </mxCell>
        <mxCell id="riU8iPJv9kqAU0dxlGaP-119" value="Inventory" style="shape=table;startSize=20;container=1;collapsible=0;childLayout=tableLayout;strokeColor=default;fontSize=16;fontStyle=1" parent="1" vertex="1">
          <mxGeometry x="40" width="400" height="180" as="geometry" />
        </mxCell>
        <mxCell id="riU8iPJv9kqAU0dxlGaP-148" value="" style="shape=tableRow;horizontal=0;startSize=0;swimlaneHead=0;swimlaneBody=0;strokeColor=inherit;top=0;left=0;bottom=0;right=0;collapsible=0;dropTarget=0;fillColor=none;points=[[0,0.5],[1,0.5]];portConstraint=eastwest;fontSize=16;" parent="riU8iPJv9kqAU0dxlGaP-119" vertex="1">
          <mxGeometry y="20" width="400" height="20" as="geometry" />
        </mxCell>
        <mxCell id="riU8iPJv9kqAU0dxlGaP-149" value="&lt;font style=&quot;&quot;&gt;&lt;font style=&quot;font-size: 16px;&quot;&gt;PK1&lt;/font&gt;&lt;br&gt;&lt;/font&gt;" style="shape=partialRectangle;html=1;whiteSpace=wrap;connectable=0;strokeColor=inherit;overflow=hidden;fillColor=none;top=0;left=0;bottom=0;right=0;pointerEvents=1;fontSize=16;" parent="riU8iPJv9kqAU0dxlGaP-148" vertex="1">
          <mxGeometry width="37" height="20" as="geometry">
            <mxRectangle width="37" height="20" as="alternateBounds" />
          </mxGeometry>
        </mxCell>
        <mxCell id="riU8iPJv9kqAU0dxlGaP-150" value="&lt;font style=&quot;font-size: 16px;&quot;&gt;Owner Inventory ID&lt;/font&gt;" style="shape=partialRectangle;html=1;whiteSpace=wrap;connectable=0;strokeColor=inherit;overflow=hidden;fillColor=none;top=0;left=0;bottom=0;right=0;pointerEvents=1;fontSize=16;" parent="riU8iPJv9kqAU0dxlGaP-148" vertex="1">
          <mxGeometry x="37" width="230" height="20" as="geometry">
            <mxRectangle width="230" height="20" as="alternateBounds" />
          </mxGeometry>
        </mxCell>
        <mxCell id="riU8iPJv9kqAU0dxlGaP-151" value="INT, NOTNULL" style="shape=partialRectangle;html=1;whiteSpace=wrap;connectable=0;strokeColor=inherit;overflow=hidden;fillColor=none;top=0;left=0;bottom=0;right=0;pointerEvents=1;fontSize=16;" parent="riU8iPJv9kqAU0dxlGaP-148" vertex="1">
          <mxGeometry x="267" width="133" height="20" as="geometry">
            <mxRectangle width="133" height="20" as="alternateBounds" />
          </mxGeometry>
        </mxCell>
        <mxCell id="riU8iPJv9kqAU0dxlGaP-144" value="" style="shape=tableRow;horizontal=0;startSize=0;swimlaneHead=0;swimlaneBody=0;strokeColor=inherit;top=0;left=0;bottom=0;right=0;collapsible=0;dropTarget=0;fillColor=none;points=[[0,0.5],[1,0.5]];portConstraint=eastwest;fontSize=16;" parent="riU8iPJv9kqAU0dxlGaP-119" vertex="1">
          <mxGeometry y="40" width="400" height="20" as="geometry" />
        </mxCell>
        <mxCell id="riU8iPJv9kqAU0dxlGaP-145" value="" style="shape=partialRectangle;html=1;whiteSpace=wrap;connectable=0;strokeColor=inherit;overflow=hidden;fillColor=none;top=0;left=0;bottom=0;right=0;pointerEvents=1;fontSize=16;" parent="riU8iPJv9kqAU0dxlGaP-144" vertex="1">
          <mxGeometry width="37" height="20" as="geometry">
            <mxRectangle width="37" height="20" as="alternateBounds" />
          </mxGeometry>
        </mxCell>
        <mxCell id="riU8iPJv9kqAU0dxlGaP-146" value="Distributor&#39;s Serial Number" style="shape=partialRectangle;html=1;whiteSpace=wrap;connectable=0;strokeColor=inherit;overflow=hidden;fillColor=none;top=0;left=0;bottom=0;right=0;pointerEvents=1;fontSize=16;" parent="riU8iPJv9kqAU0dxlGaP-144" vertex="1">
          <mxGeometry x="37" width="230" height="20" as="geometry">
            <mxRectangle width="230" height="20" as="alternateBounds" />
          </mxGeometry>
        </mxCell>
        <mxCell id="riU8iPJv9kqAU0dxlGaP-147" value="INT, NOTNULL" style="shape=partialRectangle;html=1;whiteSpace=wrap;connectable=0;strokeColor=inherit;overflow=hidden;fillColor=none;top=0;left=0;bottom=0;right=0;pointerEvents=1;fontSize=16;" parent="riU8iPJv9kqAU0dxlGaP-144" vertex="1">
          <mxGeometry x="267" width="133" height="20" as="geometry">
            <mxRectangle width="133" height="20" as="alternateBounds" />
          </mxGeometry>
        </mxCell>
        <mxCell id="riU8iPJv9kqAU0dxlGaP-140" value="" style="shape=tableRow;horizontal=0;startSize=0;swimlaneHead=0;swimlaneBody=0;strokeColor=inherit;top=0;left=0;bottom=0;right=0;collapsible=0;dropTarget=0;fillColor=none;points=[[0,0.5],[1,0.5]];portConstraint=eastwest;fontSize=16;" parent="riU8iPJv9kqAU0dxlGaP-119" vertex="1">
          <mxGeometry y="60" width="400" height="20" as="geometry" />
        </mxCell>
        <mxCell id="riU8iPJv9kqAU0dxlGaP-141" value="FK7" style="shape=partialRectangle;html=1;whiteSpace=wrap;connectable=0;strokeColor=inherit;overflow=hidden;fillColor=none;top=0;left=0;bottom=0;right=0;pointerEvents=1;fontSize=16;" parent="riU8iPJv9kqAU0dxlGaP-140" vertex="1">
          <mxGeometry width="37" height="20" as="geometry">
            <mxRectangle width="37" height="20" as="alternateBounds" />
          </mxGeometry>
        </mxCell>
        <mxCell id="riU8iPJv9kqAU0dxlGaP-142" value="Physical Copy ID" style="shape=partialRectangle;html=1;whiteSpace=wrap;connectable=0;strokeColor=inherit;overflow=hidden;fillColor=none;top=0;left=0;bottom=0;right=0;pointerEvents=1;fontSize=16;" parent="riU8iPJv9kqAU0dxlGaP-140" vertex="1">
          <mxGeometry x="37" width="230" height="20" as="geometry">
            <mxRectangle width="230" height="20" as="alternateBounds" />
          </mxGeometry>
        </mxCell>
        <mxCell id="riU8iPJv9kqAU0dxlGaP-143" value="INT, NOTNULL" style="shape=partialRectangle;html=1;whiteSpace=wrap;connectable=0;strokeColor=inherit;overflow=hidden;fillColor=none;top=0;left=0;bottom=0;right=0;pointerEvents=1;fontSize=16;" parent="riU8iPJv9kqAU0dxlGaP-140" vertex="1">
          <mxGeometry x="267" width="133" height="20" as="geometry">
            <mxRectangle width="133" height="20" as="alternateBounds" />
          </mxGeometry>
        </mxCell>
        <mxCell id="riU8iPJv9kqAU0dxlGaP-120" value="" style="shape=tableRow;horizontal=0;startSize=0;swimlaneHead=0;swimlaneBody=0;strokeColor=inherit;top=0;left=0;bottom=0;right=0;collapsible=0;dropTarget=0;fillColor=none;points=[[0,0.5],[1,0.5]];portConstraint=eastwest;fontSize=16;" parent="riU8iPJv9kqAU0dxlGaP-119" vertex="1">
          <mxGeometry y="80" width="400" height="20" as="geometry" />
        </mxCell>
        <mxCell id="riU8iPJv9kqAU0dxlGaP-121" value="PK2" style="shape=partialRectangle;html=1;whiteSpace=wrap;connectable=0;strokeColor=inherit;overflow=hidden;fillColor=none;top=0;left=0;bottom=0;right=0;pointerEvents=1;fontSize=16;" parent="riU8iPJv9kqAU0dxlGaP-120" vertex="1">
          <mxGeometry width="37" height="20" as="geometry">
            <mxRectangle width="37" height="20" as="alternateBounds" />
          </mxGeometry>
        </mxCell>
        <mxCell id="riU8iPJv9kqAU0dxlGaP-122" value="Distributor Movie ID" style="shape=partialRectangle;html=1;whiteSpace=wrap;connectable=0;strokeColor=inherit;overflow=hidden;fillColor=none;top=0;left=0;bottom=0;right=0;pointerEvents=1;fontSize=16;" parent="riU8iPJv9kqAU0dxlGaP-120" vertex="1">
          <mxGeometry x="37" width="230" height="20" as="geometry">
            <mxRectangle width="230" height="20" as="alternateBounds" />
          </mxGeometry>
        </mxCell>
        <mxCell id="riU8iPJv9kqAU0dxlGaP-123" value="INT, NOTNULL" style="shape=partialRectangle;html=1;whiteSpace=wrap;connectable=0;strokeColor=inherit;overflow=hidden;fillColor=none;top=0;left=0;bottom=0;right=0;pointerEvents=1;fontSize=16;" parent="riU8iPJv9kqAU0dxlGaP-120" vertex="1">
          <mxGeometry x="267" width="133" height="20" as="geometry">
            <mxRectangle width="133" height="20" as="alternateBounds" />
          </mxGeometry>
        </mxCell>
        <mxCell id="riU8iPJv9kqAU0dxlGaP-124" value="" style="shape=tableRow;horizontal=0;startSize=0;swimlaneHead=0;swimlaneBody=0;strokeColor=inherit;top=0;left=0;bottom=0;right=0;collapsible=0;dropTarget=0;fillColor=none;points=[[0,0.5],[1,0.5]];portConstraint=eastwest;fontSize=16;" parent="riU8iPJv9kqAU0dxlGaP-119" vertex="1">
          <mxGeometry y="100" width="400" height="20" as="geometry" />
        </mxCell>
        <mxCell id="riU8iPJv9kqAU0dxlGaP-125" value="" style="shape=partialRectangle;html=1;whiteSpace=wrap;connectable=0;strokeColor=inherit;overflow=hidden;fillColor=none;top=0;left=0;bottom=0;right=0;pointerEvents=1;fontSize=16;" parent="riU8iPJv9kqAU0dxlGaP-124" vertex="1">
          <mxGeometry width="37" height="20" as="geometry">
            <mxRectangle width="37" height="20" as="alternateBounds" />
          </mxGeometry>
        </mxCell>
        <mxCell id="riU8iPJv9kqAU0dxlGaP-126" value="Media Type" style="shape=partialRectangle;html=1;whiteSpace=wrap;connectable=0;strokeColor=inherit;overflow=hidden;fillColor=none;top=0;left=0;bottom=0;right=0;pointerEvents=1;fontSize=16;" parent="riU8iPJv9kqAU0dxlGaP-124" vertex="1">
          <mxGeometry x="37" width="230" height="20" as="geometry">
            <mxRectangle width="230" height="20" as="alternateBounds" />
          </mxGeometry>
        </mxCell>
        <mxCell id="riU8iPJv9kqAU0dxlGaP-127" value="CHAR 3" style="shape=partialRectangle;html=1;whiteSpace=wrap;connectable=0;strokeColor=inherit;overflow=hidden;fillColor=none;top=0;left=0;bottom=0;right=0;pointerEvents=1;fontSize=16;" parent="riU8iPJv9kqAU0dxlGaP-124" vertex="1">
          <mxGeometry x="267" width="133" height="20" as="geometry">
            <mxRectangle width="133" height="20" as="alternateBounds" />
          </mxGeometry>
        </mxCell>
        <mxCell id="riU8iPJv9kqAU0dxlGaP-128" value="" style="shape=tableRow;horizontal=0;startSize=0;swimlaneHead=0;swimlaneBody=0;strokeColor=inherit;top=0;left=0;bottom=0;right=0;collapsible=0;dropTarget=0;fillColor=none;points=[[0,0.5],[1,0.5]];portConstraint=eastwest;fontSize=16;" parent="riU8iPJv9kqAU0dxlGaP-119" vertex="1">
          <mxGeometry y="120" width="400" height="20" as="geometry" />
        </mxCell>
        <mxCell id="riU8iPJv9kqAU0dxlGaP-129" value="FK4" style="shape=partialRectangle;html=1;whiteSpace=wrap;connectable=0;strokeColor=inherit;overflow=hidden;fillColor=none;top=0;left=0;bottom=0;right=0;pointerEvents=1;fontSize=16;" parent="riU8iPJv9kqAU0dxlGaP-128" vertex="1">
          <mxGeometry width="37" height="20" as="geometry">
            <mxRectangle width="37" height="20" as="alternateBounds" />
          </mxGeometry>
        </mxCell>
        <mxCell id="riU8iPJv9kqAU0dxlGaP-130" value="Last Rented By (Customer ID)" style="shape=partialRectangle;html=1;whiteSpace=wrap;connectable=0;strokeColor=inherit;overflow=hidden;fillColor=none;top=0;left=0;bottom=0;right=0;pointerEvents=1;fontSize=16;" parent="riU8iPJv9kqAU0dxlGaP-128" vertex="1">
          <mxGeometry x="37" width="230" height="20" as="geometry">
            <mxRectangle width="230" height="20" as="alternateBounds" />
          </mxGeometry>
        </mxCell>
        <mxCell id="riU8iPJv9kqAU0dxlGaP-131" value="CHAR 30" style="shape=partialRectangle;html=1;whiteSpace=wrap;connectable=0;strokeColor=inherit;overflow=hidden;fillColor=none;top=0;left=0;bottom=0;right=0;pointerEvents=1;fontSize=16;" parent="riU8iPJv9kqAU0dxlGaP-128" vertex="1">
          <mxGeometry x="267" width="133" height="20" as="geometry">
            <mxRectangle width="133" height="20" as="alternateBounds" />
          </mxGeometry>
        </mxCell>
        <mxCell id="riU8iPJv9kqAU0dxlGaP-132" style="shape=tableRow;horizontal=0;startSize=0;swimlaneHead=0;swimlaneBody=0;strokeColor=inherit;top=0;left=0;bottom=0;right=0;collapsible=0;dropTarget=0;fillColor=none;points=[[0,0.5],[1,0.5]];portConstraint=eastwest;fontSize=16;" parent="riU8iPJv9kqAU0dxlGaP-119" vertex="1">
          <mxGeometry y="140" width="400" height="20" as="geometry" />
        </mxCell>
        <mxCell id="riU8iPJv9kqAU0dxlGaP-133" value="FK5" style="shape=partialRectangle;html=1;whiteSpace=wrap;connectable=0;strokeColor=inherit;overflow=hidden;fillColor=none;top=0;left=0;bottom=0;right=0;pointerEvents=1;fontSize=16;" parent="riU8iPJv9kqAU0dxlGaP-132" vertex="1">
          <mxGeometry width="37" height="20" as="geometry">
            <mxRectangle width="37" height="20" as="alternateBounds" />
          </mxGeometry>
        </mxCell>
        <mxCell id="riU8iPJv9kqAU0dxlGaP-134" value="Last Returned Date" style="shape=partialRectangle;html=1;whiteSpace=wrap;connectable=0;strokeColor=inherit;overflow=hidden;fillColor=none;top=0;left=0;bottom=0;right=0;pointerEvents=1;fontSize=16;align=center;" parent="riU8iPJv9kqAU0dxlGaP-132" vertex="1">
          <mxGeometry x="37" width="230" height="20" as="geometry">
            <mxRectangle width="230" height="20" as="alternateBounds" />
          </mxGeometry>
        </mxCell>
        <mxCell id="riU8iPJv9kqAU0dxlGaP-135" value="INT 8" style="shape=partialRectangle;html=1;whiteSpace=wrap;connectable=0;strokeColor=inherit;overflow=hidden;fillColor=none;top=0;left=0;bottom=0;right=0;pointerEvents=1;fontSize=16;" parent="riU8iPJv9kqAU0dxlGaP-132" vertex="1">
          <mxGeometry x="267" width="133" height="20" as="geometry">
            <mxRectangle width="133" height="20" as="alternateBounds" />
          </mxGeometry>
        </mxCell>
        <mxCell id="0vUhmza2sdWzEaLaUdlw-2" style="shape=tableRow;horizontal=0;startSize=0;swimlaneHead=0;swimlaneBody=0;strokeColor=inherit;top=0;left=0;bottom=0;right=0;collapsible=0;dropTarget=0;fillColor=none;points=[[0,0.5],[1,0.5]];portConstraint=eastwest;fontSize=16;" parent="riU8iPJv9kqAU0dxlGaP-119" vertex="1">
          <mxGeometry y="160" width="400" height="20" as="geometry" />
        </mxCell>
        <mxCell id="0vUhmza2sdWzEaLaUdlw-3" value="FK6" style="shape=partialRectangle;html=1;whiteSpace=wrap;connectable=0;strokeColor=inherit;overflow=hidden;fillColor=none;top=0;left=0;bottom=0;right=0;pointerEvents=1;fontSize=16;" parent="0vUhmza2sdWzEaLaUdlw-2" vertex="1">
          <mxGeometry width="37" height="20" as="geometry">
            <mxRectangle width="37" height="20" as="alternateBounds" />
          </mxGeometry>
        </mxCell>
        <mxCell id="0vUhmza2sdWzEaLaUdlw-4" value="Discount Available" style="shape=partialRectangle;html=1;whiteSpace=wrap;connectable=0;strokeColor=inherit;overflow=hidden;fillColor=none;top=0;left=0;bottom=0;right=0;pointerEvents=1;fontSize=16;align=center;" parent="0vUhmza2sdWzEaLaUdlw-2" vertex="1">
          <mxGeometry x="37" width="230" height="20" as="geometry">
            <mxRectangle width="230" height="20" as="alternateBounds" />
          </mxGeometry>
        </mxCell>
        <mxCell id="0vUhmza2sdWzEaLaUdlw-5" value="CHAR =&amp;lt;3" style="shape=partialRectangle;html=1;whiteSpace=wrap;connectable=0;strokeColor=inherit;overflow=hidden;fillColor=none;top=0;left=0;bottom=0;right=0;pointerEvents=1;fontSize=16;" parent="0vUhmza2sdWzEaLaUdlw-2" vertex="1">
          <mxGeometry x="267" width="133" height="20" as="geometry">
            <mxRectangle width="133" height="20" as="alternateBounds" />
          </mxGeometry>
        </mxCell>
        <mxCell id="0vUhmza2sdWzEaLaUdlw-6" value="Physical Movie Copies" style="shape=table;startSize=20;container=1;collapsible=0;childLayout=tableLayout;strokeColor=default;fontSize=16;fontStyle=1" parent="1" vertex="1">
          <mxGeometry x="40" y="200" width="400" height="140" as="geometry" />
        </mxCell>
        <mxCell id="0vUhmza2sdWzEaLaUdlw-7" value="" style="shape=tableRow;horizontal=0;startSize=0;swimlaneHead=0;swimlaneBody=0;strokeColor=inherit;top=0;left=0;bottom=0;right=0;collapsible=0;dropTarget=0;fillColor=none;points=[[0,0.5],[1,0.5]];portConstraint=eastwest;fontSize=16;" parent="0vUhmza2sdWzEaLaUdlw-6" vertex="1">
          <mxGeometry y="20" width="400" height="20" as="geometry" />
        </mxCell>
        <mxCell id="0vUhmza2sdWzEaLaUdlw-8" value="&lt;font style=&quot;&quot;&gt;PK7&lt;br&gt;&lt;/font&gt;" style="shape=partialRectangle;html=1;whiteSpace=wrap;connectable=0;strokeColor=inherit;overflow=hidden;fillColor=none;top=0;left=0;bottom=0;right=0;pointerEvents=1;fontSize=16;" parent="0vUhmza2sdWzEaLaUdlw-7" vertex="1">
          <mxGeometry width="37" height="20" as="geometry">
            <mxRectangle width="37" height="20" as="alternateBounds" />
          </mxGeometry>
        </mxCell>
        <mxCell id="0vUhmza2sdWzEaLaUdlw-9" value="Physical Copy ID" style="shape=partialRectangle;html=1;whiteSpace=wrap;connectable=0;strokeColor=inherit;overflow=hidden;fillColor=none;top=0;left=0;bottom=0;right=0;pointerEvents=1;fontSize=16;" parent="0vUhmza2sdWzEaLaUdlw-7" vertex="1">
          <mxGeometry x="37" width="230" height="20" as="geometry">
            <mxRectangle width="230" height="20" as="alternateBounds" />
          </mxGeometry>
        </mxCell>
        <mxCell id="0vUhmza2sdWzEaLaUdlw-10" value="INT, NOTNULL" style="shape=partialRectangle;html=1;whiteSpace=wrap;connectable=0;strokeColor=inherit;overflow=hidden;fillColor=none;top=0;left=0;bottom=0;right=0;pointerEvents=1;fontSize=16;" parent="0vUhmza2sdWzEaLaUdlw-7" vertex="1">
          <mxGeometry x="267" width="133" height="20" as="geometry">
            <mxRectangle width="133" height="20" as="alternateBounds" />
          </mxGeometry>
        </mxCell>
        <mxCell id="0vUhmza2sdWzEaLaUdlw-11" value="" style="shape=tableRow;horizontal=0;startSize=0;swimlaneHead=0;swimlaneBody=0;strokeColor=inherit;top=0;left=0;bottom=0;right=0;collapsible=0;dropTarget=0;fillColor=none;points=[[0,0.5],[1,0.5]];portConstraint=eastwest;fontSize=16;" parent="0vUhmza2sdWzEaLaUdlw-6" vertex="1">
          <mxGeometry y="40" width="400" height="20" as="geometry" />
        </mxCell>
        <mxCell id="0vUhmza2sdWzEaLaUdlw-12" value="" style="shape=partialRectangle;html=1;whiteSpace=wrap;connectable=0;strokeColor=inherit;overflow=hidden;fillColor=none;top=0;left=0;bottom=0;right=0;pointerEvents=1;fontSize=16;" parent="0vUhmza2sdWzEaLaUdlw-11" vertex="1">
          <mxGeometry width="37" height="20" as="geometry">
            <mxRectangle width="37" height="20" as="alternateBounds" />
          </mxGeometry>
        </mxCell>
        <mxCell id="0vUhmza2sdWzEaLaUdlw-13" value="Distributor&#39;s Serial Number" style="shape=partialRectangle;html=1;whiteSpace=wrap;connectable=0;strokeColor=inherit;overflow=hidden;fillColor=none;top=0;left=0;bottom=0;right=0;pointerEvents=1;fontSize=16;" parent="0vUhmza2sdWzEaLaUdlw-11" vertex="1">
          <mxGeometry x="37" width="230" height="20" as="geometry">
            <mxRectangle width="230" height="20" as="alternateBounds" />
          </mxGeometry>
        </mxCell>
        <mxCell id="0vUhmza2sdWzEaLaUdlw-14" value="INT, NOTNULL" style="shape=partialRectangle;html=1;whiteSpace=wrap;connectable=0;strokeColor=inherit;overflow=hidden;fillColor=none;top=0;left=0;bottom=0;right=0;pointerEvents=1;fontSize=16;" parent="0vUhmza2sdWzEaLaUdlw-11" vertex="1">
          <mxGeometry x="267" width="133" height="20" as="geometry">
            <mxRectangle width="133" height="20" as="alternateBounds" />
          </mxGeometry>
        </mxCell>
        <mxCell id="0vUhmza2sdWzEaLaUdlw-15" value="" style="shape=tableRow;horizontal=0;startSize=0;swimlaneHead=0;swimlaneBody=0;strokeColor=inherit;top=0;left=0;bottom=0;right=0;collapsible=0;dropTarget=0;fillColor=none;points=[[0,0.5],[1,0.5]];portConstraint=eastwest;fontSize=16;" parent="0vUhmza2sdWzEaLaUdlw-6" vertex="1">
          <mxGeometry y="60" width="400" height="20" as="geometry" />
        </mxCell>
        <mxCell id="0vUhmza2sdWzEaLaUdlw-16" value="" style="shape=partialRectangle;html=1;whiteSpace=wrap;connectable=0;strokeColor=inherit;overflow=hidden;fillColor=none;top=0;left=0;bottom=0;right=0;pointerEvents=1;fontSize=16;" parent="0vUhmza2sdWzEaLaUdlw-15" vertex="1">
          <mxGeometry width="37" height="20" as="geometry">
            <mxRectangle width="37" height="20" as="alternateBounds" />
          </mxGeometry>
        </mxCell>
        <mxCell id="0vUhmza2sdWzEaLaUdlw-17" value="Media Type" style="shape=partialRectangle;html=1;whiteSpace=wrap;connectable=0;strokeColor=inherit;overflow=hidden;fillColor=none;top=0;left=0;bottom=0;right=0;pointerEvents=1;fontSize=16;" parent="0vUhmza2sdWzEaLaUdlw-15" vertex="1">
          <mxGeometry x="37" width="230" height="20" as="geometry">
            <mxRectangle width="230" height="20" as="alternateBounds" />
          </mxGeometry>
        </mxCell>
        <mxCell id="0vUhmza2sdWzEaLaUdlw-18" value="CHAR 3" style="shape=partialRectangle;html=1;whiteSpace=wrap;connectable=0;strokeColor=inherit;overflow=hidden;fillColor=none;top=0;left=0;bottom=0;right=0;pointerEvents=1;fontSize=16;" parent="0vUhmza2sdWzEaLaUdlw-15" vertex="1">
          <mxGeometry x="267" width="133" height="20" as="geometry">
            <mxRectangle width="133" height="20" as="alternateBounds" />
          </mxGeometry>
        </mxCell>
        <mxCell id="0vUhmza2sdWzEaLaUdlw-19" style="shape=tableRow;horizontal=0;startSize=0;swimlaneHead=0;swimlaneBody=0;strokeColor=inherit;top=0;left=0;bottom=0;right=0;collapsible=0;dropTarget=0;fillColor=none;points=[[0,0.5],[1,0.5]];portConstraint=eastwest;fontSize=16;" parent="0vUhmza2sdWzEaLaUdlw-6" vertex="1">
          <mxGeometry y="80" width="400" height="20" as="geometry" />
        </mxCell>
        <mxCell id="0vUhmza2sdWzEaLaUdlw-20" value="FK4" style="shape=partialRectangle;html=1;whiteSpace=wrap;connectable=0;strokeColor=inherit;overflow=hidden;fillColor=none;top=0;left=0;bottom=0;right=0;pointerEvents=1;fontSize=16;" parent="0vUhmza2sdWzEaLaUdlw-19" vertex="1">
          <mxGeometry width="37" height="20" as="geometry">
            <mxRectangle width="37" height="20" as="alternateBounds" />
          </mxGeometry>
        </mxCell>
        <mxCell id="0vUhmza2sdWzEaLaUdlw-21" value="Last Rented By (Customer ID)" style="shape=partialRectangle;html=1;whiteSpace=wrap;connectable=0;strokeColor=inherit;overflow=hidden;fillColor=none;top=0;left=0;bottom=0;right=0;pointerEvents=1;fontSize=16;align=center;" parent="0vUhmza2sdWzEaLaUdlw-19" vertex="1">
          <mxGeometry x="37" width="230" height="20" as="geometry">
            <mxRectangle width="230" height="20" as="alternateBounds" />
          </mxGeometry>
        </mxCell>
        <mxCell id="0vUhmza2sdWzEaLaUdlw-22" value="INT, NOTNULL" style="shape=partialRectangle;html=1;whiteSpace=wrap;connectable=0;strokeColor=inherit;overflow=hidden;fillColor=none;top=0;left=0;bottom=0;right=0;pointerEvents=1;fontSize=16;" parent="0vUhmza2sdWzEaLaUdlw-19" vertex="1">
          <mxGeometry x="267" width="133" height="20" as="geometry">
            <mxRectangle width="133" height="20" as="alternateBounds" />
          </mxGeometry>
        </mxCell>
        <mxCell id="0vUhmza2sdWzEaLaUdlw-23" value="" style="shape=tableRow;horizontal=0;startSize=0;swimlaneHead=0;swimlaneBody=0;strokeColor=inherit;top=0;left=0;bottom=0;right=0;collapsible=0;dropTarget=0;fillColor=none;points=[[0,0.5],[1,0.5]];portConstraint=eastwest;fontSize=16;" parent="0vUhmza2sdWzEaLaUdlw-6" vertex="1">
          <mxGeometry y="100" width="400" height="20" as="geometry" />
        </mxCell>
        <mxCell id="0vUhmza2sdWzEaLaUdlw-24" value="FK5" style="shape=partialRectangle;html=1;whiteSpace=wrap;connectable=0;strokeColor=inherit;overflow=hidden;fillColor=none;top=0;left=0;bottom=0;right=0;pointerEvents=1;fontSize=16;" parent="0vUhmza2sdWzEaLaUdlw-23" vertex="1">
          <mxGeometry width="37" height="20" as="geometry">
            <mxRectangle width="37" height="20" as="alternateBounds" />
          </mxGeometry>
        </mxCell>
        <mxCell id="0vUhmza2sdWzEaLaUdlw-25" value="Last Returned Date" style="shape=partialRectangle;html=1;whiteSpace=wrap;connectable=0;strokeColor=inherit;overflow=hidden;fillColor=none;top=0;left=0;bottom=0;right=0;pointerEvents=1;fontSize=16;" parent="0vUhmza2sdWzEaLaUdlw-23" vertex="1">
          <mxGeometry x="37" width="230" height="20" as="geometry">
            <mxRectangle width="230" height="20" as="alternateBounds" />
          </mxGeometry>
        </mxCell>
        <mxCell id="0vUhmza2sdWzEaLaUdlw-26" value="INT 8" style="shape=partialRectangle;html=1;whiteSpace=wrap;connectable=0;strokeColor=inherit;overflow=hidden;fillColor=none;top=0;left=0;bottom=0;right=0;pointerEvents=1;fontSize=16;" parent="0vUhmza2sdWzEaLaUdlw-23" vertex="1">
          <mxGeometry x="267" width="133" height="20" as="geometry">
            <mxRectangle width="133" height="20" as="alternateBounds" />
          </mxGeometry>
        </mxCell>
        <mxCell id="0vUhmza2sdWzEaLaUdlw-27" value="" style="shape=tableRow;horizontal=0;startSize=0;swimlaneHead=0;swimlaneBody=0;strokeColor=inherit;top=0;left=0;bottom=0;right=0;collapsible=0;dropTarget=0;fillColor=none;points=[[0,0.5],[1,0.5]];portConstraint=eastwest;fontSize=16;" parent="0vUhmza2sdWzEaLaUdlw-6" vertex="1">
          <mxGeometry y="120" width="400" height="20" as="geometry" />
        </mxCell>
        <mxCell id="0vUhmza2sdWzEaLaUdlw-28" value="FK6" style="shape=partialRectangle;html=1;whiteSpace=wrap;connectable=0;strokeColor=inherit;overflow=hidden;fillColor=none;top=0;left=0;bottom=0;right=0;pointerEvents=1;fontSize=16;" parent="0vUhmza2sdWzEaLaUdlw-27" vertex="1">
          <mxGeometry width="37" height="20" as="geometry">
            <mxRectangle width="37" height="20" as="alternateBounds" />
          </mxGeometry>
        </mxCell>
        <mxCell id="0vUhmza2sdWzEaLaUdlw-29" value="Discount Available" style="shape=partialRectangle;html=1;whiteSpace=wrap;connectable=0;strokeColor=inherit;overflow=hidden;fillColor=none;top=0;left=0;bottom=0;right=0;pointerEvents=1;fontSize=16;" parent="0vUhmza2sdWzEaLaUdlw-27" vertex="1">
          <mxGeometry x="37" width="230" height="20" as="geometry">
            <mxRectangle width="230" height="20" as="alternateBounds" />
          </mxGeometry>
        </mxCell>
        <mxCell id="0vUhmza2sdWzEaLaUdlw-30" value="CHAR =&amp;lt;3" style="shape=partialRectangle;html=1;whiteSpace=wrap;connectable=0;strokeColor=inherit;overflow=hidden;fillColor=none;top=0;left=0;bottom=0;right=0;pointerEvents=1;fontSize=16;" parent="0vUhmza2sdWzEaLaUdlw-27" vertex="1">
          <mxGeometry x="267" width="133" height="20" as="geometry">
            <mxRectangle width="133" height="20" as="alternateBounds" />
          </mxGeometry>
        </mxCell>
        <mxCell id="0vUhmza2sdWzEaLaUdlw-43" value="Movie Information" style="shape=table;startSize=20;container=1;collapsible=0;childLayout=tableLayout;strokeColor=default;fontSize=16;fontStyle=1" parent="1" vertex="1">
          <mxGeometry x="-420" y="120" width="400" height="180" as="geometry" />
        </mxCell>
        <mxCell id="0vUhmza2sdWzEaLaUdlw-44" value="" style="shape=tableRow;horizontal=0;startSize=0;swimlaneHead=0;swimlaneBody=0;strokeColor=inherit;top=0;left=0;bottom=0;right=0;collapsible=0;dropTarget=0;fillColor=none;points=[[0,0.5],[1,0.5]];portConstraint=eastwest;fontSize=16;" parent="0vUhmza2sdWzEaLaUdlw-43" vertex="1">
          <mxGeometry y="20" width="400" height="20" as="geometry" />
        </mxCell>
        <mxCell id="0vUhmza2sdWzEaLaUdlw-45" value="PK2" style="shape=partialRectangle;html=1;whiteSpace=wrap;connectable=0;strokeColor=inherit;overflow=hidden;fillColor=none;top=0;left=0;bottom=0;right=0;pointerEvents=1;fontSize=16;" parent="0vUhmza2sdWzEaLaUdlw-44" vertex="1">
          <mxGeometry width="37" height="20" as="geometry">
            <mxRectangle width="37" height="20" as="alternateBounds" />
          </mxGeometry>
        </mxCell>
        <mxCell id="0vUhmza2sdWzEaLaUdlw-46" value="Distributor Movie ID" style="shape=partialRectangle;html=1;whiteSpace=wrap;connectable=0;strokeColor=inherit;overflow=hidden;fillColor=none;top=0;left=0;bottom=0;right=0;pointerEvents=1;fontSize=16;" parent="0vUhmza2sdWzEaLaUdlw-44" vertex="1">
          <mxGeometry x="37" width="230" height="20" as="geometry">
            <mxRectangle width="230" height="20" as="alternateBounds" />
          </mxGeometry>
        </mxCell>
        <mxCell id="0vUhmza2sdWzEaLaUdlw-47" value="INT, NOTNULL" style="shape=partialRectangle;html=1;whiteSpace=wrap;connectable=0;strokeColor=inherit;overflow=hidden;fillColor=none;top=0;left=0;bottom=0;right=0;pointerEvents=1;fontSize=16;" parent="0vUhmza2sdWzEaLaUdlw-44" vertex="1">
          <mxGeometry x="267" width="133" height="20" as="geometry">
            <mxRectangle width="133" height="20" as="alternateBounds" />
          </mxGeometry>
        </mxCell>
        <mxCell id="0vUhmza2sdWzEaLaUdlw-48" value="" style="shape=tableRow;horizontal=0;startSize=0;swimlaneHead=0;swimlaneBody=0;strokeColor=inherit;top=0;left=0;bottom=0;right=0;collapsible=0;dropTarget=0;fillColor=none;points=[[0,0.5],[1,0.5]];portConstraint=eastwest;fontSize=16;" parent="0vUhmza2sdWzEaLaUdlw-43" vertex="1">
          <mxGeometry y="40" width="400" height="20" as="geometry" />
        </mxCell>
        <mxCell id="0vUhmza2sdWzEaLaUdlw-49" value="FK3" style="shape=partialRectangle;html=1;whiteSpace=wrap;connectable=0;strokeColor=inherit;overflow=hidden;fillColor=none;top=0;left=0;bottom=0;right=0;pointerEvents=1;fontSize=16;" parent="0vUhmza2sdWzEaLaUdlw-48" vertex="1">
          <mxGeometry width="37" height="20" as="geometry">
            <mxRectangle width="37" height="20" as="alternateBounds" />
          </mxGeometry>
        </mxCell>
        <mxCell id="0vUhmza2sdWzEaLaUdlw-50" value="Title" style="shape=partialRectangle;html=1;whiteSpace=wrap;connectable=0;strokeColor=inherit;overflow=hidden;fillColor=none;top=0;left=0;bottom=0;right=0;pointerEvents=1;fontSize=16;" parent="0vUhmza2sdWzEaLaUdlw-48" vertex="1">
          <mxGeometry x="37" width="230" height="20" as="geometry">
            <mxRectangle width="230" height="20" as="alternateBounds" />
          </mxGeometry>
        </mxCell>
        <mxCell id="0vUhmza2sdWzEaLaUdlw-51" value="VARCHAR, 30" style="shape=partialRectangle;html=1;whiteSpace=wrap;connectable=0;strokeColor=inherit;overflow=hidden;fillColor=none;top=0;left=0;bottom=0;right=0;pointerEvents=1;fontSize=16;" parent="0vUhmza2sdWzEaLaUdlw-48" vertex="1">
          <mxGeometry x="267" width="133" height="20" as="geometry">
            <mxRectangle width="133" height="20" as="alternateBounds" />
          </mxGeometry>
        </mxCell>
        <mxCell id="0vUhmza2sdWzEaLaUdlw-52" value="" style="shape=tableRow;horizontal=0;startSize=0;swimlaneHead=0;swimlaneBody=0;strokeColor=inherit;top=0;left=0;bottom=0;right=0;collapsible=0;dropTarget=0;fillColor=none;points=[[0,0.5],[1,0.5]];portConstraint=eastwest;fontSize=16;" parent="0vUhmza2sdWzEaLaUdlw-43" vertex="1">
          <mxGeometry y="60" width="400" height="20" as="geometry" />
        </mxCell>
        <mxCell id="0vUhmza2sdWzEaLaUdlw-53" value="" style="shape=partialRectangle;html=1;whiteSpace=wrap;connectable=0;strokeColor=inherit;overflow=hidden;fillColor=none;top=0;left=0;bottom=0;right=0;pointerEvents=1;fontSize=16;" parent="0vUhmza2sdWzEaLaUdlw-52" vertex="1">
          <mxGeometry width="37" height="20" as="geometry">
            <mxRectangle width="37" height="20" as="alternateBounds" />
          </mxGeometry>
        </mxCell>
        <mxCell id="0vUhmza2sdWzEaLaUdlw-54" value="Actor" style="shape=partialRectangle;html=1;whiteSpace=wrap;connectable=0;strokeColor=inherit;overflow=hidden;fillColor=none;top=0;left=0;bottom=0;right=0;pointerEvents=1;fontSize=16;" parent="0vUhmza2sdWzEaLaUdlw-52" vertex="1">
          <mxGeometry x="37" width="230" height="20" as="geometry">
            <mxRectangle width="230" height="20" as="alternateBounds" />
          </mxGeometry>
        </mxCell>
        <mxCell id="0vUhmza2sdWzEaLaUdlw-55" value="VARCHAR (30)" style="shape=partialRectangle;html=1;whiteSpace=wrap;connectable=0;strokeColor=inherit;overflow=hidden;fillColor=none;top=0;left=0;bottom=0;right=0;pointerEvents=1;fontSize=16;" parent="0vUhmza2sdWzEaLaUdlw-52" vertex="1">
          <mxGeometry x="267" width="133" height="20" as="geometry">
            <mxRectangle width="133" height="20" as="alternateBounds" />
          </mxGeometry>
        </mxCell>
        <mxCell id="0vUhmza2sdWzEaLaUdlw-56" style="shape=tableRow;horizontal=0;startSize=0;swimlaneHead=0;swimlaneBody=0;strokeColor=inherit;top=0;left=0;bottom=0;right=0;collapsible=0;dropTarget=0;fillColor=none;points=[[0,0.5],[1,0.5]];portConstraint=eastwest;fontSize=16;" parent="0vUhmza2sdWzEaLaUdlw-43" vertex="1">
          <mxGeometry y="80" width="400" height="20" as="geometry" />
        </mxCell>
        <mxCell id="0vUhmza2sdWzEaLaUdlw-57" value="" style="shape=partialRectangle;html=1;whiteSpace=wrap;connectable=0;strokeColor=inherit;overflow=hidden;fillColor=none;top=0;left=0;bottom=0;right=0;pointerEvents=1;fontSize=16;" parent="0vUhmza2sdWzEaLaUdlw-56" vertex="1">
          <mxGeometry width="37" height="20" as="geometry">
            <mxRectangle width="37" height="20" as="alternateBounds" />
          </mxGeometry>
        </mxCell>
        <mxCell id="0vUhmza2sdWzEaLaUdlw-58" value="Release Year" style="shape=partialRectangle;html=1;whiteSpace=wrap;connectable=0;strokeColor=inherit;overflow=hidden;fillColor=none;top=0;left=0;bottom=0;right=0;pointerEvents=1;fontSize=16;align=center;" parent="0vUhmza2sdWzEaLaUdlw-56" vertex="1">
          <mxGeometry x="37" width="230" height="20" as="geometry">
            <mxRectangle width="230" height="20" as="alternateBounds" />
          </mxGeometry>
        </mxCell>
        <mxCell id="0vUhmza2sdWzEaLaUdlw-59" value="INT 8" style="shape=partialRectangle;html=1;whiteSpace=wrap;connectable=0;strokeColor=inherit;overflow=hidden;fillColor=none;top=0;left=0;bottom=0;right=0;pointerEvents=1;fontSize=16;" parent="0vUhmza2sdWzEaLaUdlw-56" vertex="1">
          <mxGeometry x="267" width="133" height="20" as="geometry">
            <mxRectangle width="133" height="20" as="alternateBounds" />
          </mxGeometry>
        </mxCell>
        <mxCell id="0vUhmza2sdWzEaLaUdlw-60" value="" style="shape=tableRow;horizontal=0;startSize=0;swimlaneHead=0;swimlaneBody=0;strokeColor=inherit;top=0;left=0;bottom=0;right=0;collapsible=0;dropTarget=0;fillColor=none;points=[[0,0.5],[1,0.5]];portConstraint=eastwest;fontSize=16;" parent="0vUhmza2sdWzEaLaUdlw-43" vertex="1">
          <mxGeometry y="100" width="400" height="20" as="geometry" />
        </mxCell>
        <mxCell id="0vUhmza2sdWzEaLaUdlw-61" value="" style="shape=partialRectangle;html=1;whiteSpace=wrap;connectable=0;strokeColor=inherit;overflow=hidden;fillColor=none;top=0;left=0;bottom=0;right=0;pointerEvents=1;fontSize=16;" parent="0vUhmza2sdWzEaLaUdlw-60" vertex="1">
          <mxGeometry width="37" height="20" as="geometry">
            <mxRectangle width="37" height="20" as="alternateBounds" />
          </mxGeometry>
        </mxCell>
        <mxCell id="0vUhmza2sdWzEaLaUdlw-62" value="Director" style="shape=partialRectangle;html=1;whiteSpace=wrap;connectable=0;strokeColor=inherit;overflow=hidden;fillColor=none;top=0;left=0;bottom=0;right=0;pointerEvents=1;fontSize=16;" parent="0vUhmza2sdWzEaLaUdlw-60" vertex="1">
          <mxGeometry x="37" width="230" height="20" as="geometry">
            <mxRectangle width="230" height="20" as="alternateBounds" />
          </mxGeometry>
        </mxCell>
        <mxCell id="0vUhmza2sdWzEaLaUdlw-63" value="VARCHAR (30)" style="shape=partialRectangle;html=1;whiteSpace=wrap;connectable=0;strokeColor=inherit;overflow=hidden;fillColor=none;top=0;left=0;bottom=0;right=0;pointerEvents=1;fontSize=16;" parent="0vUhmza2sdWzEaLaUdlw-60" vertex="1">
          <mxGeometry x="267" width="133" height="20" as="geometry">
            <mxRectangle width="133" height="20" as="alternateBounds" />
          </mxGeometry>
        </mxCell>
        <mxCell id="0vUhmza2sdWzEaLaUdlw-64" value="" style="shape=tableRow;horizontal=0;startSize=0;swimlaneHead=0;swimlaneBody=0;strokeColor=inherit;top=0;left=0;bottom=0;right=0;collapsible=0;dropTarget=0;fillColor=none;points=[[0,0.5],[1,0.5]];portConstraint=eastwest;fontSize=16;" parent="0vUhmza2sdWzEaLaUdlw-43" vertex="1">
          <mxGeometry y="120" width="400" height="20" as="geometry" />
        </mxCell>
        <mxCell id="0vUhmza2sdWzEaLaUdlw-65" value="" style="shape=partialRectangle;html=1;whiteSpace=wrap;connectable=0;strokeColor=inherit;overflow=hidden;fillColor=none;top=0;left=0;bottom=0;right=0;pointerEvents=1;fontSize=16;" parent="0vUhmza2sdWzEaLaUdlw-64" vertex="1">
          <mxGeometry width="37" height="20" as="geometry">
            <mxRectangle width="37" height="20" as="alternateBounds" />
          </mxGeometry>
        </mxCell>
        <mxCell id="0vUhmza2sdWzEaLaUdlw-66" value="Genre" style="shape=partialRectangle;html=1;whiteSpace=wrap;connectable=0;strokeColor=inherit;overflow=hidden;fillColor=none;top=0;left=0;bottom=0;right=0;pointerEvents=1;fontSize=16;" parent="0vUhmza2sdWzEaLaUdlw-64" vertex="1">
          <mxGeometry x="37" width="230" height="20" as="geometry">
            <mxRectangle width="230" height="20" as="alternateBounds" />
          </mxGeometry>
        </mxCell>
        <mxCell id="0vUhmza2sdWzEaLaUdlw-67" value="VARCHAR (30)" style="shape=partialRectangle;html=1;whiteSpace=wrap;connectable=0;strokeColor=inherit;overflow=hidden;fillColor=none;top=0;left=0;bottom=0;right=0;pointerEvents=1;fontSize=16;" parent="0vUhmza2sdWzEaLaUdlw-64" vertex="1">
          <mxGeometry x="267" width="133" height="20" as="geometry">
            <mxRectangle width="133" height="20" as="alternateBounds" />
          </mxGeometry>
        </mxCell>
        <mxCell id="0vUhmza2sdWzEaLaUdlw-68" value="" style="shape=tableRow;horizontal=0;startSize=0;swimlaneHead=0;swimlaneBody=0;strokeColor=inherit;top=0;left=0;bottom=0;right=0;collapsible=0;dropTarget=0;fillColor=none;points=[[0,0.5],[1,0.5]];portConstraint=eastwest;fontSize=16;" parent="0vUhmza2sdWzEaLaUdlw-43" vertex="1">
          <mxGeometry y="140" width="400" height="20" as="geometry" />
        </mxCell>
        <mxCell id="0vUhmza2sdWzEaLaUdlw-69" value="" style="shape=partialRectangle;html=1;whiteSpace=wrap;connectable=0;strokeColor=inherit;overflow=hidden;fillColor=none;top=0;left=0;bottom=0;right=0;pointerEvents=1;fontSize=16;" parent="0vUhmza2sdWzEaLaUdlw-68" vertex="1">
          <mxGeometry width="37" height="20" as="geometry">
            <mxRectangle width="37" height="20" as="alternateBounds" />
          </mxGeometry>
        </mxCell>
        <mxCell id="0vUhmza2sdWzEaLaUdlw-70" value="Academy Awards Won" style="shape=partialRectangle;html=1;whiteSpace=wrap;connectable=0;strokeColor=inherit;overflow=hidden;fillColor=none;top=0;left=0;bottom=0;right=0;pointerEvents=1;fontSize=16;" parent="0vUhmza2sdWzEaLaUdlw-68" vertex="1">
          <mxGeometry x="37" width="230" height="20" as="geometry">
            <mxRectangle width="230" height="20" as="alternateBounds" />
          </mxGeometry>
        </mxCell>
        <mxCell id="0vUhmza2sdWzEaLaUdlw-71" value="INT 3" style="shape=partialRectangle;html=1;whiteSpace=wrap;connectable=0;strokeColor=inherit;overflow=hidden;fillColor=none;top=0;left=0;bottom=0;right=0;pointerEvents=1;fontSize=16;" parent="0vUhmza2sdWzEaLaUdlw-68" vertex="1">
          <mxGeometry x="267" width="133" height="20" as="geometry">
            <mxRectangle width="133" height="20" as="alternateBounds" />
          </mxGeometry>
        </mxCell>
        <mxCell id="0vUhmza2sdWzEaLaUdlw-72" style="shape=tableRow;horizontal=0;startSize=0;swimlaneHead=0;swimlaneBody=0;strokeColor=inherit;top=0;left=0;bottom=0;right=0;collapsible=0;dropTarget=0;fillColor=none;points=[[0,0.5],[1,0.5]];portConstraint=eastwest;fontSize=16;" parent="0vUhmza2sdWzEaLaUdlw-43" vertex="1">
          <mxGeometry y="160" width="400" height="20" as="geometry" />
        </mxCell>
        <mxCell id="0vUhmza2sdWzEaLaUdlw-73" value="FK6" style="shape=partialRectangle;html=1;whiteSpace=wrap;connectable=0;strokeColor=inherit;overflow=hidden;fillColor=none;top=0;left=0;bottom=0;right=0;pointerEvents=1;fontSize=16;" parent="0vUhmza2sdWzEaLaUdlw-72" vertex="1">
          <mxGeometry width="37" height="20" as="geometry">
            <mxRectangle width="37" height="20" as="alternateBounds" />
          </mxGeometry>
        </mxCell>
        <mxCell id="0vUhmza2sdWzEaLaUdlw-74" value="Discount Available" style="shape=partialRectangle;html=1;whiteSpace=wrap;connectable=0;strokeColor=inherit;overflow=hidden;fillColor=none;top=0;left=0;bottom=0;right=0;pointerEvents=1;fontSize=16;align=center;" parent="0vUhmza2sdWzEaLaUdlw-72" vertex="1">
          <mxGeometry x="37" width="230" height="20" as="geometry">
            <mxRectangle width="230" height="20" as="alternateBounds" />
          </mxGeometry>
        </mxCell>
        <mxCell id="0vUhmza2sdWzEaLaUdlw-75" value="CHAR =&amp;lt;3" style="shape=partialRectangle;html=1;whiteSpace=wrap;connectable=0;strokeColor=inherit;overflow=hidden;fillColor=none;top=0;left=0;bottom=0;right=0;pointerEvents=1;fontSize=16;" parent="0vUhmza2sdWzEaLaUdlw-72" vertex="1">
          <mxGeometry x="267" width="133" height="20" as="geometry">
            <mxRectangle width="133" height="20" as="alternateBounds" />
          </mxGeometry>
        </mxCell>
        <mxCell id="0vUhmza2sdWzEaLaUdlw-97" value="Customer Information" style="shape=table;startSize=20;container=1;collapsible=0;childLayout=tableLayout;strokeColor=default;fontSize=16;fontStyle=1" parent="1" vertex="1">
          <mxGeometry x="-420" y="340" width="400" height="220" as="geometry" />
        </mxCell>
        <mxCell id="0vUhmza2sdWzEaLaUdlw-98" value="" style="shape=tableRow;horizontal=0;startSize=0;swimlaneHead=0;swimlaneBody=0;strokeColor=inherit;top=0;left=0;bottom=0;right=0;collapsible=0;dropTarget=0;fillColor=none;points=[[0,0.5],[1,0.5]];portConstraint=eastwest;fontSize=16;" parent="0vUhmza2sdWzEaLaUdlw-97" vertex="1">
          <mxGeometry y="20" width="400" height="20" as="geometry" />
        </mxCell>
        <mxCell id="0vUhmza2sdWzEaLaUdlw-99" value="PK" style="shape=partialRectangle;html=1;whiteSpace=wrap;connectable=0;strokeColor=inherit;overflow=hidden;fillColor=none;top=0;left=0;bottom=0;right=0;pointerEvents=1;fontSize=16;" parent="0vUhmza2sdWzEaLaUdlw-98" vertex="1">
          <mxGeometry width="37" height="20" as="geometry">
            <mxRectangle width="37" height="20" as="alternateBounds" />
          </mxGeometry>
        </mxCell>
        <mxCell id="0vUhmza2sdWzEaLaUdlw-100" value="Customer ID Number" style="shape=partialRectangle;html=1;whiteSpace=wrap;connectable=0;strokeColor=inherit;overflow=hidden;fillColor=none;top=0;left=0;bottom=0;right=0;pointerEvents=1;fontSize=16;" parent="0vUhmza2sdWzEaLaUdlw-98" vertex="1">
          <mxGeometry x="37" width="230" height="20" as="geometry">
            <mxRectangle width="230" height="20" as="alternateBounds" />
          </mxGeometry>
        </mxCell>
        <mxCell id="0vUhmza2sdWzEaLaUdlw-101" value="INT, NOTNULL" style="shape=partialRectangle;html=1;whiteSpace=wrap;connectable=0;strokeColor=inherit;overflow=hidden;fillColor=none;top=0;left=0;bottom=0;right=0;pointerEvents=1;fontSize=16;" parent="0vUhmza2sdWzEaLaUdlw-98" vertex="1">
          <mxGeometry x="267" width="133" height="20" as="geometry">
            <mxRectangle width="133" height="20" as="alternateBounds" />
          </mxGeometry>
        </mxCell>
        <mxCell id="0vUhmza2sdWzEaLaUdlw-102" value="" style="shape=tableRow;horizontal=0;startSize=0;swimlaneHead=0;swimlaneBody=0;strokeColor=inherit;top=0;left=0;bottom=0;right=0;collapsible=0;dropTarget=0;fillColor=none;points=[[0,0.5],[1,0.5]];portConstraint=eastwest;fontSize=16;" parent="0vUhmza2sdWzEaLaUdlw-97" vertex="1">
          <mxGeometry y="40" width="400" height="20" as="geometry" />
        </mxCell>
        <mxCell id="0vUhmza2sdWzEaLaUdlw-103" value="FK" style="shape=partialRectangle;html=1;whiteSpace=wrap;connectable=0;strokeColor=inherit;overflow=hidden;fillColor=none;top=0;left=0;bottom=0;right=0;pointerEvents=1;fontSize=16;" parent="0vUhmza2sdWzEaLaUdlw-102" vertex="1">
          <mxGeometry width="37" height="20" as="geometry">
            <mxRectangle width="37" height="20" as="alternateBounds" />
          </mxGeometry>
        </mxCell>
        <mxCell id="0vUhmza2sdWzEaLaUdlw-104" value="Name" style="shape=partialRectangle;html=1;whiteSpace=wrap;connectable=0;strokeColor=inherit;overflow=hidden;fillColor=none;top=0;left=0;bottom=0;right=0;pointerEvents=1;fontSize=16;" parent="0vUhmza2sdWzEaLaUdlw-102" vertex="1">
          <mxGeometry x="37" width="230" height="20" as="geometry">
            <mxRectangle width="230" height="20" as="alternateBounds" />
          </mxGeometry>
        </mxCell>
        <mxCell id="0vUhmza2sdWzEaLaUdlw-105" value="CHAR" style="shape=partialRectangle;html=1;whiteSpace=wrap;connectable=0;strokeColor=inherit;overflow=hidden;fillColor=none;top=0;left=0;bottom=0;right=0;pointerEvents=1;fontSize=16;" parent="0vUhmza2sdWzEaLaUdlw-102" vertex="1">
          <mxGeometry x="267" width="133" height="20" as="geometry">
            <mxRectangle width="133" height="20" as="alternateBounds" />
          </mxGeometry>
        </mxCell>
        <mxCell id="0vUhmza2sdWzEaLaUdlw-106" value="" style="shape=tableRow;horizontal=0;startSize=0;swimlaneHead=0;swimlaneBody=0;strokeColor=inherit;top=0;left=0;bottom=0;right=0;collapsible=0;dropTarget=0;fillColor=none;points=[[0,0.5],[1,0.5]];portConstraint=eastwest;fontSize=16;" parent="0vUhmza2sdWzEaLaUdlw-97" vertex="1">
          <mxGeometry y="60" width="400" height="20" as="geometry" />
        </mxCell>
        <mxCell id="0vUhmza2sdWzEaLaUdlw-107" value="" style="shape=partialRectangle;html=1;whiteSpace=wrap;connectable=0;strokeColor=inherit;overflow=hidden;fillColor=none;top=0;left=0;bottom=0;right=0;pointerEvents=1;fontSize=16;" parent="0vUhmza2sdWzEaLaUdlw-106" vertex="1">
          <mxGeometry width="37" height="20" as="geometry">
            <mxRectangle width="37" height="20" as="alternateBounds" />
          </mxGeometry>
        </mxCell>
        <mxCell id="0vUhmza2sdWzEaLaUdlw-108" value="Address" style="shape=partialRectangle;html=1;whiteSpace=wrap;connectable=0;strokeColor=inherit;overflow=hidden;fillColor=none;top=0;left=0;bottom=0;right=0;pointerEvents=1;fontSize=16;" parent="0vUhmza2sdWzEaLaUdlw-106" vertex="1">
          <mxGeometry x="37" width="230" height="20" as="geometry">
            <mxRectangle width="230" height="20" as="alternateBounds" />
          </mxGeometry>
        </mxCell>
        <mxCell id="0vUhmza2sdWzEaLaUdlw-109" value="VARCHAR" style="shape=partialRectangle;html=1;whiteSpace=wrap;connectable=0;strokeColor=inherit;overflow=hidden;fillColor=none;top=0;left=0;bottom=0;right=0;pointerEvents=1;fontSize=16;" parent="0vUhmza2sdWzEaLaUdlw-106" vertex="1">
          <mxGeometry x="267" width="133" height="20" as="geometry">
            <mxRectangle width="133" height="20" as="alternateBounds" />
          </mxGeometry>
        </mxCell>
        <mxCell id="0vUhmza2sdWzEaLaUdlw-110" style="shape=tableRow;horizontal=0;startSize=0;swimlaneHead=0;swimlaneBody=0;strokeColor=inherit;top=0;left=0;bottom=0;right=0;collapsible=0;dropTarget=0;fillColor=none;points=[[0,0.5],[1,0.5]];portConstraint=eastwest;fontSize=16;" parent="0vUhmza2sdWzEaLaUdlw-97" vertex="1">
          <mxGeometry y="80" width="400" height="20" as="geometry" />
        </mxCell>
        <mxCell id="0vUhmza2sdWzEaLaUdlw-111" value="" style="shape=partialRectangle;html=1;whiteSpace=wrap;connectable=0;strokeColor=inherit;overflow=hidden;fillColor=none;top=0;left=0;bottom=0;right=0;pointerEvents=1;fontSize=16;" parent="0vUhmza2sdWzEaLaUdlw-110" vertex="1">
          <mxGeometry width="37" height="20" as="geometry">
            <mxRectangle width="37" height="20" as="alternateBounds" />
          </mxGeometry>
        </mxCell>
        <mxCell id="0vUhmza2sdWzEaLaUdlw-112" value="Date of Birth" style="shape=partialRectangle;html=1;whiteSpace=wrap;connectable=0;strokeColor=inherit;overflow=hidden;fillColor=none;top=0;left=0;bottom=0;right=0;pointerEvents=1;fontSize=16;align=center;" parent="0vUhmza2sdWzEaLaUdlw-110" vertex="1">
          <mxGeometry x="37" width="230" height="20" as="geometry">
            <mxRectangle width="230" height="20" as="alternateBounds" />
          </mxGeometry>
        </mxCell>
        <mxCell id="0vUhmza2sdWzEaLaUdlw-113" value="INT 8" style="shape=partialRectangle;html=1;whiteSpace=wrap;connectable=0;strokeColor=inherit;overflow=hidden;fillColor=none;top=0;left=0;bottom=0;right=0;pointerEvents=1;fontSize=16;" parent="0vUhmza2sdWzEaLaUdlw-110" vertex="1">
          <mxGeometry x="267" width="133" height="20" as="geometry">
            <mxRectangle width="133" height="20" as="alternateBounds" />
          </mxGeometry>
        </mxCell>
        <mxCell id="0vUhmza2sdWzEaLaUdlw-114" value="" style="shape=tableRow;horizontal=0;startSize=0;swimlaneHead=0;swimlaneBody=0;strokeColor=inherit;top=0;left=0;bottom=0;right=0;collapsible=0;dropTarget=0;fillColor=none;points=[[0,0.5],[1,0.5]];portConstraint=eastwest;fontSize=16;" parent="0vUhmza2sdWzEaLaUdlw-97" vertex="1">
          <mxGeometry y="100" width="400" height="20" as="geometry" />
        </mxCell>
        <mxCell id="0vUhmza2sdWzEaLaUdlw-115" value="" style="shape=partialRectangle;html=1;whiteSpace=wrap;connectable=0;strokeColor=inherit;overflow=hidden;fillColor=none;top=0;left=0;bottom=0;right=0;pointerEvents=1;fontSize=16;" parent="0vUhmza2sdWzEaLaUdlw-114" vertex="1">
          <mxGeometry width="37" height="20" as="geometry">
            <mxRectangle width="37" height="20" as="alternateBounds" />
          </mxGeometry>
        </mxCell>
        <mxCell id="0vUhmza2sdWzEaLaUdlw-116" value="Telephone Number" style="shape=partialRectangle;html=1;whiteSpace=wrap;connectable=0;strokeColor=inherit;overflow=hidden;fillColor=none;top=0;left=0;bottom=0;right=0;pointerEvents=1;fontSize=16;" parent="0vUhmza2sdWzEaLaUdlw-114" vertex="1">
          <mxGeometry x="37" width="230" height="20" as="geometry">
            <mxRectangle width="230" height="20" as="alternateBounds" />
          </mxGeometry>
        </mxCell>
        <mxCell id="0vUhmza2sdWzEaLaUdlw-117" value="INT" style="shape=partialRectangle;html=1;whiteSpace=wrap;connectable=0;strokeColor=inherit;overflow=hidden;fillColor=none;top=0;left=0;bottom=0;right=0;pointerEvents=1;fontSize=16;" parent="0vUhmza2sdWzEaLaUdlw-114" vertex="1">
          <mxGeometry x="267" width="133" height="20" as="geometry">
            <mxRectangle width="133" height="20" as="alternateBounds" />
          </mxGeometry>
        </mxCell>
        <mxCell id="0vUhmza2sdWzEaLaUdlw-118" value="" style="shape=tableRow;horizontal=0;startSize=0;swimlaneHead=0;swimlaneBody=0;strokeColor=inherit;top=0;left=0;bottom=0;right=0;collapsible=0;dropTarget=0;fillColor=none;points=[[0,0.5],[1,0.5]];portConstraint=eastwest;fontSize=16;" parent="0vUhmza2sdWzEaLaUdlw-97" vertex="1">
          <mxGeometry y="120" width="400" height="20" as="geometry" />
        </mxCell>
        <mxCell id="0vUhmza2sdWzEaLaUdlw-119" value="" style="shape=partialRectangle;html=1;whiteSpace=wrap;connectable=0;strokeColor=inherit;overflow=hidden;fillColor=none;top=0;left=0;bottom=0;right=0;pointerEvents=1;fontSize=16;" parent="0vUhmza2sdWzEaLaUdlw-118" vertex="1">
          <mxGeometry width="37" height="20" as="geometry">
            <mxRectangle width="37" height="20" as="alternateBounds" />
          </mxGeometry>
        </mxCell>
        <mxCell id="0vUhmza2sdWzEaLaUdlw-120" value="Weekly Rental Amount" style="shape=partialRectangle;html=1;whiteSpace=wrap;connectable=0;strokeColor=inherit;overflow=hidden;fillColor=none;top=0;left=0;bottom=0;right=0;pointerEvents=1;fontSize=16;" parent="0vUhmza2sdWzEaLaUdlw-118" vertex="1">
          <mxGeometry x="37" width="230" height="20" as="geometry">
            <mxRectangle width="230" height="20" as="alternateBounds" />
          </mxGeometry>
        </mxCell>
        <mxCell id="0vUhmza2sdWzEaLaUdlw-121" value="INT 5" style="shape=partialRectangle;html=1;whiteSpace=wrap;connectable=0;strokeColor=inherit;overflow=hidden;fillColor=none;top=0;left=0;bottom=0;right=0;pointerEvents=1;fontSize=16;" parent="0vUhmza2sdWzEaLaUdlw-118" vertex="1">
          <mxGeometry x="267" width="133" height="20" as="geometry">
            <mxRectangle width="133" height="20" as="alternateBounds" />
          </mxGeometry>
        </mxCell>
        <mxCell id="0vUhmza2sdWzEaLaUdlw-122" value="" style="shape=tableRow;horizontal=0;startSize=0;swimlaneHead=0;swimlaneBody=0;strokeColor=inherit;top=0;left=0;bottom=0;right=0;collapsible=0;dropTarget=0;fillColor=none;points=[[0,0.5],[1,0.5]];portConstraint=eastwest;fontSize=16;" parent="0vUhmza2sdWzEaLaUdlw-97" vertex="1">
          <mxGeometry y="140" width="400" height="20" as="geometry" />
        </mxCell>
        <mxCell id="0vUhmza2sdWzEaLaUdlw-123" value="" style="shape=partialRectangle;html=1;whiteSpace=wrap;connectable=0;strokeColor=inherit;overflow=hidden;fillColor=none;top=0;left=0;bottom=0;right=0;pointerEvents=1;fontSize=16;" parent="0vUhmza2sdWzEaLaUdlw-122" vertex="1">
          <mxGeometry width="37" height="20" as="geometry">
            <mxRectangle width="37" height="20" as="alternateBounds" />
          </mxGeometry>
        </mxCell>
        <mxCell id="0vUhmza2sdWzEaLaUdlw-124" value="Monthly Rental Amount" style="shape=partialRectangle;html=1;whiteSpace=wrap;connectable=0;strokeColor=inherit;overflow=hidden;fillColor=none;top=0;left=0;bottom=0;right=0;pointerEvents=1;fontSize=16;" parent="0vUhmza2sdWzEaLaUdlw-122" vertex="1">
          <mxGeometry x="37" width="230" height="20" as="geometry">
            <mxRectangle width="230" height="20" as="alternateBounds" />
          </mxGeometry>
        </mxCell>
        <mxCell id="0vUhmza2sdWzEaLaUdlw-125" value="INT 5" style="shape=partialRectangle;html=1;whiteSpace=wrap;connectable=0;strokeColor=inherit;overflow=hidden;fillColor=none;top=0;left=0;bottom=0;right=0;pointerEvents=1;fontSize=16;" parent="0vUhmza2sdWzEaLaUdlw-122" vertex="1">
          <mxGeometry x="267" width="133" height="20" as="geometry">
            <mxRectangle width="133" height="20" as="alternateBounds" />
          </mxGeometry>
        </mxCell>
        <mxCell id="0vUhmza2sdWzEaLaUdlw-126" style="shape=tableRow;horizontal=0;startSize=0;swimlaneHead=0;swimlaneBody=0;strokeColor=inherit;top=0;left=0;bottom=0;right=0;collapsible=0;dropTarget=0;fillColor=none;points=[[0,0.5],[1,0.5]];portConstraint=eastwest;fontSize=16;" parent="0vUhmza2sdWzEaLaUdlw-97" vertex="1">
          <mxGeometry y="160" width="400" height="20" as="geometry" />
        </mxCell>
        <mxCell id="0vUhmza2sdWzEaLaUdlw-127" value="" style="shape=partialRectangle;html=1;whiteSpace=wrap;connectable=0;strokeColor=inherit;overflow=hidden;fillColor=none;top=0;left=0;bottom=0;right=0;pointerEvents=1;fontSize=16;" parent="0vUhmza2sdWzEaLaUdlw-126" vertex="1">
          <mxGeometry width="37" height="20" as="geometry">
            <mxRectangle width="37" height="20" as="alternateBounds" />
          </mxGeometry>
        </mxCell>
        <mxCell id="0vUhmza2sdWzEaLaUdlw-128" value="Yearly Rental Amount" style="shape=partialRectangle;html=1;whiteSpace=wrap;connectable=0;strokeColor=inherit;overflow=hidden;fillColor=none;top=0;left=0;bottom=0;right=0;pointerEvents=1;fontSize=16;align=center;" parent="0vUhmza2sdWzEaLaUdlw-126" vertex="1">
          <mxGeometry x="37" width="230" height="20" as="geometry">
            <mxRectangle width="230" height="20" as="alternateBounds" />
          </mxGeometry>
        </mxCell>
        <mxCell id="0vUhmza2sdWzEaLaUdlw-129" value="INT 5" style="shape=partialRectangle;html=1;whiteSpace=wrap;connectable=0;strokeColor=inherit;overflow=hidden;fillColor=none;top=0;left=0;bottom=0;right=0;pointerEvents=1;fontSize=16;" parent="0vUhmza2sdWzEaLaUdlw-126" vertex="1">
          <mxGeometry x="267" width="133" height="20" as="geometry">
            <mxRectangle width="133" height="20" as="alternateBounds" />
          </mxGeometry>
        </mxCell>
        <mxCell id="0vUhmza2sdWzEaLaUdlw-134" style="shape=tableRow;horizontal=0;startSize=0;swimlaneHead=0;swimlaneBody=0;strokeColor=inherit;top=0;left=0;bottom=0;right=0;collapsible=0;dropTarget=0;fillColor=none;points=[[0,0.5],[1,0.5]];portConstraint=eastwest;fontSize=16;" parent="0vUhmza2sdWzEaLaUdlw-97" vertex="1">
          <mxGeometry y="180" width="400" height="20" as="geometry" />
        </mxCell>
        <mxCell id="0vUhmza2sdWzEaLaUdlw-135" style="shape=partialRectangle;html=1;whiteSpace=wrap;connectable=0;strokeColor=inherit;overflow=hidden;fillColor=none;top=0;left=0;bottom=0;right=0;pointerEvents=1;fontSize=16;" parent="0vUhmza2sdWzEaLaUdlw-134" vertex="1">
          <mxGeometry width="37" height="20" as="geometry">
            <mxRectangle width="37" height="20" as="alternateBounds" />
          </mxGeometry>
        </mxCell>
        <mxCell id="0vUhmza2sdWzEaLaUdlw-136" value="Standard Charges Accrued" style="shape=partialRectangle;html=1;whiteSpace=wrap;connectable=0;strokeColor=inherit;overflow=hidden;fillColor=none;top=0;left=0;bottom=0;right=0;pointerEvents=1;fontSize=16;align=center;" parent="0vUhmza2sdWzEaLaUdlw-134" vertex="1">
          <mxGeometry x="37" width="230" height="20" as="geometry">
            <mxRectangle width="230" height="20" as="alternateBounds" />
          </mxGeometry>
        </mxCell>
        <mxCell id="0vUhmza2sdWzEaLaUdlw-137" value="DOUBLE 10" style="shape=partialRectangle;html=1;whiteSpace=wrap;connectable=0;strokeColor=inherit;overflow=hidden;fillColor=none;top=0;left=0;bottom=0;right=0;pointerEvents=1;fontSize=16;" parent="0vUhmza2sdWzEaLaUdlw-134" vertex="1">
          <mxGeometry x="267" width="133" height="20" as="geometry">
            <mxRectangle width="133" height="20" as="alternateBounds" />
          </mxGeometry>
        </mxCell>
        <mxCell id="0vUhmza2sdWzEaLaUdlw-130" style="shape=tableRow;horizontal=0;startSize=0;swimlaneHead=0;swimlaneBody=0;strokeColor=inherit;top=0;left=0;bottom=0;right=0;collapsible=0;dropTarget=0;fillColor=none;points=[[0,0.5],[1,0.5]];portConstraint=eastwest;fontSize=16;" parent="0vUhmza2sdWzEaLaUdlw-97" vertex="1">
          <mxGeometry y="200" width="400" height="20" as="geometry" />
        </mxCell>
        <mxCell id="0vUhmza2sdWzEaLaUdlw-131" style="shape=partialRectangle;html=1;whiteSpace=wrap;connectable=0;strokeColor=inherit;overflow=hidden;fillColor=none;top=0;left=0;bottom=0;right=0;pointerEvents=1;fontSize=16;" parent="0vUhmza2sdWzEaLaUdlw-130" vertex="1">
          <mxGeometry width="37" height="20" as="geometry">
            <mxRectangle width="37" height="20" as="alternateBounds" />
          </mxGeometry>
        </mxCell>
        <mxCell id="0vUhmza2sdWzEaLaUdlw-132" value="Late Charges Accrued" style="shape=partialRectangle;html=1;whiteSpace=wrap;connectable=0;strokeColor=inherit;overflow=hidden;fillColor=none;top=0;left=0;bottom=0;right=0;pointerEvents=1;fontSize=16;align=center;" parent="0vUhmza2sdWzEaLaUdlw-130" vertex="1">
          <mxGeometry x="37" width="230" height="20" as="geometry">
            <mxRectangle width="230" height="20" as="alternateBounds" />
          </mxGeometry>
        </mxCell>
        <mxCell id="0vUhmza2sdWzEaLaUdlw-133" value="DOUBLE 10" style="shape=partialRectangle;html=1;whiteSpace=wrap;connectable=0;strokeColor=inherit;overflow=hidden;fillColor=none;top=0;left=0;bottom=0;right=0;pointerEvents=1;fontSize=16;" parent="0vUhmza2sdWzEaLaUdlw-130" vertex="1">
          <mxGeometry x="267" width="133" height="20" as="geometry">
            <mxRectangle width="133" height="20" as="alternateBounds" />
          </mxGeometry>
        </mxCell>
        <mxCell id="FKkMSM4BFhxgl_aAA2wI-1" value="Catalog" style="shape=table;startSize=20;container=1;collapsible=0;childLayout=tableLayout;strokeColor=default;fontSize=16;fontStyle=1" vertex="1" parent="1">
          <mxGeometry x="-1080" y="-80" width="400" height="100" as="geometry" />
        </mxCell>
        <mxCell id="FKkMSM4BFhxgl_aAA2wI-2" value="" style="shape=tableRow;horizontal=0;startSize=0;swimlaneHead=0;swimlaneBody=0;strokeColor=inherit;top=0;left=0;bottom=0;right=0;collapsible=0;dropTarget=0;fillColor=none;points=[[0,0.5],[1,0.5]];portConstraint=eastwest;fontSize=16;" vertex="1" parent="FKkMSM4BFhxgl_aAA2wI-1">
          <mxGeometry y="20" width="400" height="20" as="geometry" />
        </mxCell>
        <mxCell id="FKkMSM4BFhxgl_aAA2wI-3" value="" style="shape=partialRectangle;html=1;whiteSpace=wrap;connectable=0;strokeColor=inherit;overflow=hidden;fillColor=none;top=0;left=0;bottom=0;right=0;pointerEvents=1;fontSize=16;" vertex="1" parent="FKkMSM4BFhxgl_aAA2wI-2">
          <mxGeometry width="37" height="20" as="geometry">
            <mxRectangle width="37" height="20" as="alternateBounds" />
          </mxGeometry>
        </mxCell>
        <mxCell id="FKkMSM4BFhxgl_aAA2wI-4" value="" style="shape=partialRectangle;html=1;whiteSpace=wrap;connectable=0;strokeColor=inherit;overflow=hidden;fillColor=none;top=0;left=0;bottom=0;right=0;pointerEvents=1;fontSize=16;" vertex="1" parent="FKkMSM4BFhxgl_aAA2wI-2">
          <mxGeometry x="37" width="230" height="20" as="geometry">
            <mxRectangle width="230" height="20" as="alternateBounds" />
          </mxGeometry>
        </mxCell>
        <mxCell id="FKkMSM4BFhxgl_aAA2wI-5" value="" style="shape=partialRectangle;html=1;whiteSpace=wrap;connectable=0;strokeColor=inherit;overflow=hidden;fillColor=none;top=0;left=0;bottom=0;right=0;pointerEvents=1;fontSize=16;" vertex="1" parent="FKkMSM4BFhxgl_aAA2wI-2">
          <mxGeometry x="267" width="133" height="20" as="geometry">
            <mxRectangle width="133" height="20" as="alternateBounds" />
          </mxGeometry>
        </mxCell>
        <mxCell id="FKkMSM4BFhxgl_aAA2wI-6" value="" style="shape=tableRow;horizontal=0;startSize=0;swimlaneHead=0;swimlaneBody=0;strokeColor=inherit;top=0;left=0;bottom=0;right=0;collapsible=0;dropTarget=0;fillColor=none;points=[[0,0.5],[1,0.5]];portConstraint=eastwest;fontSize=16;" vertex="1" parent="FKkMSM4BFhxgl_aAA2wI-1">
          <mxGeometry y="40" width="400" height="20" as="geometry" />
        </mxCell>
        <mxCell id="FKkMSM4BFhxgl_aAA2wI-7" value="" style="shape=partialRectangle;html=1;whiteSpace=wrap;connectable=0;strokeColor=inherit;overflow=hidden;fillColor=none;top=0;left=0;bottom=0;right=0;pointerEvents=1;fontSize=16;" vertex="1" parent="FKkMSM4BFhxgl_aAA2wI-6">
          <mxGeometry width="37" height="20" as="geometry">
            <mxRectangle width="37" height="20" as="alternateBounds" />
          </mxGeometry>
        </mxCell>
        <mxCell id="FKkMSM4BFhxgl_aAA2wI-8" value="" style="shape=partialRectangle;html=1;whiteSpace=wrap;connectable=0;strokeColor=inherit;overflow=hidden;fillColor=none;top=0;left=0;bottom=0;right=0;pointerEvents=1;fontSize=16;" vertex="1" parent="FKkMSM4BFhxgl_aAA2wI-6">
          <mxGeometry x="37" width="230" height="20" as="geometry">
            <mxRectangle width="230" height="20" as="alternateBounds" />
          </mxGeometry>
        </mxCell>
        <mxCell id="FKkMSM4BFhxgl_aAA2wI-9" value="" style="shape=partialRectangle;html=1;whiteSpace=wrap;connectable=0;strokeColor=inherit;overflow=hidden;fillColor=none;top=0;left=0;bottom=0;right=0;pointerEvents=1;fontSize=16;" vertex="1" parent="FKkMSM4BFhxgl_aAA2wI-6">
          <mxGeometry x="267" width="133" height="20" as="geometry">
            <mxRectangle width="133" height="20" as="alternateBounds" />
          </mxGeometry>
        </mxCell>
        <mxCell id="FKkMSM4BFhxgl_aAA2wI-10" value="" style="shape=tableRow;horizontal=0;startSize=0;swimlaneHead=0;swimlaneBody=0;strokeColor=inherit;top=0;left=0;bottom=0;right=0;collapsible=0;dropTarget=0;fillColor=none;points=[[0,0.5],[1,0.5]];portConstraint=eastwest;fontSize=16;" vertex="1" parent="FKkMSM4BFhxgl_aAA2wI-1">
          <mxGeometry y="60" width="400" height="20" as="geometry" />
        </mxCell>
        <mxCell id="FKkMSM4BFhxgl_aAA2wI-11" value="" style="shape=partialRectangle;html=1;whiteSpace=wrap;connectable=0;strokeColor=inherit;overflow=hidden;fillColor=none;top=0;left=0;bottom=0;right=0;pointerEvents=1;fontSize=16;" vertex="1" parent="FKkMSM4BFhxgl_aAA2wI-10">
          <mxGeometry width="37" height="20" as="geometry">
            <mxRectangle width="37" height="20" as="alternateBounds" />
          </mxGeometry>
        </mxCell>
        <mxCell id="FKkMSM4BFhxgl_aAA2wI-12" value="" style="shape=partialRectangle;html=1;whiteSpace=wrap;connectable=0;strokeColor=inherit;overflow=hidden;fillColor=none;top=0;left=0;bottom=0;right=0;pointerEvents=1;fontSize=16;" vertex="1" parent="FKkMSM4BFhxgl_aAA2wI-10">
          <mxGeometry x="37" width="230" height="20" as="geometry">
            <mxRectangle width="230" height="20" as="alternateBounds" />
          </mxGeometry>
        </mxCell>
        <mxCell id="FKkMSM4BFhxgl_aAA2wI-13" value="" style="shape=partialRectangle;html=1;whiteSpace=wrap;connectable=0;strokeColor=inherit;overflow=hidden;fillColor=none;top=0;left=0;bottom=0;right=0;pointerEvents=1;fontSize=16;" vertex="1" parent="FKkMSM4BFhxgl_aAA2wI-10">
          <mxGeometry x="267" width="133" height="20" as="geometry">
            <mxRectangle width="133" height="20" as="alternateBounds" />
          </mxGeometry>
        </mxCell>
        <mxCell id="FKkMSM4BFhxgl_aAA2wI-14" style="shape=tableRow;horizontal=0;startSize=0;swimlaneHead=0;swimlaneBody=0;strokeColor=inherit;top=0;left=0;bottom=0;right=0;collapsible=0;dropTarget=0;fillColor=none;points=[[0,0.5],[1,0.5]];portConstraint=eastwest;fontSize=16;" vertex="1" parent="FKkMSM4BFhxgl_aAA2wI-1">
          <mxGeometry y="80" width="400" height="20" as="geometry" />
        </mxCell>
        <mxCell id="FKkMSM4BFhxgl_aAA2wI-15" value="" style="shape=partialRectangle;html=1;whiteSpace=wrap;connectable=0;strokeColor=inherit;overflow=hidden;fillColor=none;top=0;left=0;bottom=0;right=0;pointerEvents=1;fontSize=16;" vertex="1" parent="FKkMSM4BFhxgl_aAA2wI-14">
          <mxGeometry width="37" height="20" as="geometry">
            <mxRectangle width="37" height="20" as="alternateBounds" />
          </mxGeometry>
        </mxCell>
        <mxCell id="FKkMSM4BFhxgl_aAA2wI-16" value="" style="shape=partialRectangle;html=1;whiteSpace=wrap;connectable=0;strokeColor=inherit;overflow=hidden;fillColor=none;top=0;left=0;bottom=0;right=0;pointerEvents=1;fontSize=16;align=center;" vertex="1" parent="FKkMSM4BFhxgl_aAA2wI-14">
          <mxGeometry x="37" width="230" height="20" as="geometry">
            <mxRectangle width="230" height="20" as="alternateBounds" />
          </mxGeometry>
        </mxCell>
        <mxCell id="FKkMSM4BFhxgl_aAA2wI-17" value="" style="shape=partialRectangle;html=1;whiteSpace=wrap;connectable=0;strokeColor=inherit;overflow=hidden;fillColor=none;top=0;left=0;bottom=0;right=0;pointerEvents=1;fontSize=16;" vertex="1" parent="FKkMSM4BFhxgl_aAA2wI-14">
          <mxGeometry x="267" width="133" height="20" as="geometry">
            <mxRectangle width="133" height="20" as="alternateBounds" />
          </mxGeometry>
        </mxCell>
        <mxCell id="FKkMSM4BFhxgl_aAA2wI-18" value="Catalog" style="shape=table;startSize=20;container=1;collapsible=0;childLayout=tableLayout;strokeColor=default;fontSize=16;fontStyle=1" vertex="1" parent="1">
          <mxGeometry x="-1080" y="160" width="400" height="100" as="geometry" />
        </mxCell>
        <mxCell id="FKkMSM4BFhxgl_aAA2wI-19" value="" style="shape=tableRow;horizontal=0;startSize=0;swimlaneHead=0;swimlaneBody=0;strokeColor=inherit;top=0;left=0;bottom=0;right=0;collapsible=0;dropTarget=0;fillColor=none;points=[[0,0.5],[1,0.5]];portConstraint=eastwest;fontSize=16;" vertex="1" parent="FKkMSM4BFhxgl_aAA2wI-18">
          <mxGeometry y="20" width="400" height="20" as="geometry" />
        </mxCell>
        <mxCell id="FKkMSM4BFhxgl_aAA2wI-20" value="" style="shape=partialRectangle;html=1;whiteSpace=wrap;connectable=0;strokeColor=inherit;overflow=hidden;fillColor=none;top=0;left=0;bottom=0;right=0;pointerEvents=1;fontSize=16;" vertex="1" parent="FKkMSM4BFhxgl_aAA2wI-19">
          <mxGeometry width="37" height="20" as="geometry">
            <mxRectangle width="37" height="20" as="alternateBounds" />
          </mxGeometry>
        </mxCell>
        <mxCell id="FKkMSM4BFhxgl_aAA2wI-21" value="" style="shape=partialRectangle;html=1;whiteSpace=wrap;connectable=0;strokeColor=inherit;overflow=hidden;fillColor=none;top=0;left=0;bottom=0;right=0;pointerEvents=1;fontSize=16;" vertex="1" parent="FKkMSM4BFhxgl_aAA2wI-19">
          <mxGeometry x="37" width="230" height="20" as="geometry">
            <mxRectangle width="230" height="20" as="alternateBounds" />
          </mxGeometry>
        </mxCell>
        <mxCell id="FKkMSM4BFhxgl_aAA2wI-22" value="" style="shape=partialRectangle;html=1;whiteSpace=wrap;connectable=0;strokeColor=inherit;overflow=hidden;fillColor=none;top=0;left=0;bottom=0;right=0;pointerEvents=1;fontSize=16;" vertex="1" parent="FKkMSM4BFhxgl_aAA2wI-19">
          <mxGeometry x="267" width="133" height="20" as="geometry">
            <mxRectangle width="133" height="20" as="alternateBounds" />
          </mxGeometry>
        </mxCell>
        <mxCell id="FKkMSM4BFhxgl_aAA2wI-23" value="" style="shape=tableRow;horizontal=0;startSize=0;swimlaneHead=0;swimlaneBody=0;strokeColor=inherit;top=0;left=0;bottom=0;right=0;collapsible=0;dropTarget=0;fillColor=none;points=[[0,0.5],[1,0.5]];portConstraint=eastwest;fontSize=16;" vertex="1" parent="FKkMSM4BFhxgl_aAA2wI-18">
          <mxGeometry y="40" width="400" height="20" as="geometry" />
        </mxCell>
        <mxCell id="FKkMSM4BFhxgl_aAA2wI-24" value="" style="shape=partialRectangle;html=1;whiteSpace=wrap;connectable=0;strokeColor=inherit;overflow=hidden;fillColor=none;top=0;left=0;bottom=0;right=0;pointerEvents=1;fontSize=16;" vertex="1" parent="FKkMSM4BFhxgl_aAA2wI-23">
          <mxGeometry width="37" height="20" as="geometry">
            <mxRectangle width="37" height="20" as="alternateBounds" />
          </mxGeometry>
        </mxCell>
        <mxCell id="FKkMSM4BFhxgl_aAA2wI-25" value="" style="shape=partialRectangle;html=1;whiteSpace=wrap;connectable=0;strokeColor=inherit;overflow=hidden;fillColor=none;top=0;left=0;bottom=0;right=0;pointerEvents=1;fontSize=16;" vertex="1" parent="FKkMSM4BFhxgl_aAA2wI-23">
          <mxGeometry x="37" width="230" height="20" as="geometry">
            <mxRectangle width="230" height="20" as="alternateBounds" />
          </mxGeometry>
        </mxCell>
        <mxCell id="FKkMSM4BFhxgl_aAA2wI-26" value="" style="shape=partialRectangle;html=1;whiteSpace=wrap;connectable=0;strokeColor=inherit;overflow=hidden;fillColor=none;top=0;left=0;bottom=0;right=0;pointerEvents=1;fontSize=16;" vertex="1" parent="FKkMSM4BFhxgl_aAA2wI-23">
          <mxGeometry x="267" width="133" height="20" as="geometry">
            <mxRectangle width="133" height="20" as="alternateBounds" />
          </mxGeometry>
        </mxCell>
        <mxCell id="FKkMSM4BFhxgl_aAA2wI-27" value="" style="shape=tableRow;horizontal=0;startSize=0;swimlaneHead=0;swimlaneBody=0;strokeColor=inherit;top=0;left=0;bottom=0;right=0;collapsible=0;dropTarget=0;fillColor=none;points=[[0,0.5],[1,0.5]];portConstraint=eastwest;fontSize=16;" vertex="1" parent="FKkMSM4BFhxgl_aAA2wI-18">
          <mxGeometry y="60" width="400" height="20" as="geometry" />
        </mxCell>
        <mxCell id="FKkMSM4BFhxgl_aAA2wI-28" value="" style="shape=partialRectangle;html=1;whiteSpace=wrap;connectable=0;strokeColor=inherit;overflow=hidden;fillColor=none;top=0;left=0;bottom=0;right=0;pointerEvents=1;fontSize=16;" vertex="1" parent="FKkMSM4BFhxgl_aAA2wI-27">
          <mxGeometry width="37" height="20" as="geometry">
            <mxRectangle width="37" height="20" as="alternateBounds" />
          </mxGeometry>
        </mxCell>
        <mxCell id="FKkMSM4BFhxgl_aAA2wI-29" value="" style="shape=partialRectangle;html=1;whiteSpace=wrap;connectable=0;strokeColor=inherit;overflow=hidden;fillColor=none;top=0;left=0;bottom=0;right=0;pointerEvents=1;fontSize=16;" vertex="1" parent="FKkMSM4BFhxgl_aAA2wI-27">
          <mxGeometry x="37" width="230" height="20" as="geometry">
            <mxRectangle width="230" height="20" as="alternateBounds" />
          </mxGeometry>
        </mxCell>
        <mxCell id="FKkMSM4BFhxgl_aAA2wI-30" value="" style="shape=partialRectangle;html=1;whiteSpace=wrap;connectable=0;strokeColor=inherit;overflow=hidden;fillColor=none;top=0;left=0;bottom=0;right=0;pointerEvents=1;fontSize=16;" vertex="1" parent="FKkMSM4BFhxgl_aAA2wI-27">
          <mxGeometry x="267" width="133" height="20" as="geometry">
            <mxRectangle width="133" height="20" as="alternateBounds" />
          </mxGeometry>
        </mxCell>
        <mxCell id="FKkMSM4BFhxgl_aAA2wI-31" style="shape=tableRow;horizontal=0;startSize=0;swimlaneHead=0;swimlaneBody=0;strokeColor=inherit;top=0;left=0;bottom=0;right=0;collapsible=0;dropTarget=0;fillColor=none;points=[[0,0.5],[1,0.5]];portConstraint=eastwest;fontSize=16;" vertex="1" parent="FKkMSM4BFhxgl_aAA2wI-18">
          <mxGeometry y="80" width="400" height="20" as="geometry" />
        </mxCell>
        <mxCell id="FKkMSM4BFhxgl_aAA2wI-32" value="" style="shape=partialRectangle;html=1;whiteSpace=wrap;connectable=0;strokeColor=inherit;overflow=hidden;fillColor=none;top=0;left=0;bottom=0;right=0;pointerEvents=1;fontSize=16;" vertex="1" parent="FKkMSM4BFhxgl_aAA2wI-31">
          <mxGeometry width="37" height="20" as="geometry">
            <mxRectangle width="37" height="20" as="alternateBounds" />
          </mxGeometry>
        </mxCell>
        <mxCell id="FKkMSM4BFhxgl_aAA2wI-33" value="" style="shape=partialRectangle;html=1;whiteSpace=wrap;connectable=0;strokeColor=inherit;overflow=hidden;fillColor=none;top=0;left=0;bottom=0;right=0;pointerEvents=1;fontSize=16;align=center;" vertex="1" parent="FKkMSM4BFhxgl_aAA2wI-31">
          <mxGeometry x="37" width="230" height="20" as="geometry">
            <mxRectangle width="230" height="20" as="alternateBounds" />
          </mxGeometry>
        </mxCell>
        <mxCell id="FKkMSM4BFhxgl_aAA2wI-34" value="" style="shape=partialRectangle;html=1;whiteSpace=wrap;connectable=0;strokeColor=inherit;overflow=hidden;fillColor=none;top=0;left=0;bottom=0;right=0;pointerEvents=1;fontSize=16;" vertex="1" parent="FKkMSM4BFhxgl_aAA2wI-31">
          <mxGeometry x="267" width="133" height="20" as="geometry">
            <mxRectangle width="133" height="20" as="alternateBounds" />
          </mxGeometry>
        </mxCell>
      </root>
    </mxGraphModel>
  </diagram>
</mxfile>
